STARTFONT 2.1
FONT -FontForge-Avenir Next Condensed Medium-Medium-R-Condensed---28-200-100-100-P-118-ISO10646-1
SIZE 20 100 100
FONTBOUNDINGBOX 28 34 -3 -7
COMMENT "Generated by fontforge, http://fontforge.sourceforge.net"
COMMENT "Copyright (c) 2004 - 2007 Linotype GmbH, www.linotype.com. All rights reserved."
STARTPROPERTIES 40
FOUNDRY "FontForge"
FAMILY_NAME "Avenir Next Condensed Medium"
WEIGHT_NAME "Medium"
SLANT "R"
SETWIDTH_NAME "Condensed"
ADD_STYLE_NAME ""
PIXEL_SIZE 28
POINT_SIZE 200
RESOLUTION_X 100
RESOLUTION_Y 100
SPACING "P"
AVERAGE_WIDTH 118
CHARSET_REGISTRY "ISO10646"
CHARSET_ENCODING "1"
FONTNAME_REGISTRY ""
CHARSET_COLLECTIONS "ISO8859-2 ISO8859-9 ISO8859-4 ISO10646-1"
FONT_NAME "AvenirNextCondensed-Medium"
FACE_NAME "Avenir Next Condensed Medium"
COPYRIGHT "Copyright (c) 2004 - 2007 Linotype GmbH, www.linotype.com. All rights reserved."
FONT_VERSION "13.0d1e10"
FONT_ASCENT 22
FONT_DESCENT 6
UNDERLINE_POSITION -3
UNDERLINE_THICKNESS 2
X_HEIGHT 13
CAP_HEIGHT 19
DEFAULT_CHAR 1
RAW_ASCENT 800
RAW_DESCENT 200
NORM_SPACE 5
RELATIVE_WEIGHT 50
RELATIVE_SETWIDTH 30
SUPERSCRIPT_X 0
SUPERSCRIPT_Y 13
SUPERSCRIPT_SIZE 18
SUBSCRIPT_X 0
SUBSCRIPT_Y 3
SUBSCRIPT_SIZE 18
AVG_LOWERCASE_WIDTH 113
AVG_UPPERCASE_WIDTH 133
ENDPROPERTIES
CHARS 532
STARTCHAR .null.dup1
ENCODING 0
SWIDTH 190 0
DWIDTH 5 0
BBX 1 1 0 0
BITMAP
00
ENDCHAR
STARTCHAR nonmarkingreturn
ENCODING 13
SWIDTH 0 0
DWIDTH 0 0
BBX 1 1 0 0
BITMAP
00
ENDCHAR
STARTCHAR space
ENCODING 32
SWIDTH 190 0
DWIDTH 5 0
BBX 1 1 0 0
BITMAP
00
ENDCHAR
STARTCHAR exclam
ENCODING 33
SWIDTH 302 0
DWIDTH 8 0
BBX 3 20 3 0
BITMAP
C0
C0
C0
C0
C0
C0
C0
C0
C0
C0
C0
C0
C0
C0
00
00
40
E0
E0
E0
ENDCHAR
STARTCHAR quotedbl
ENCODING 34
SWIDTH 355 0
DWIDTH 10 0
BBX 6 7 2 13
BITMAP
CC
CC
CC
CC
CC
CC
CC
ENDCHAR
STARTCHAR numbersign
ENCODING 35
SWIDTH 388 0
DWIDTH 11 0
BBX 9 20 1 0
BITMAP
1300
1300
1300
3300
3300
3200
FF80
FF80
3200
3600
2600
2600
FF00
FF00
6600
6600
6400
6400
6400
6400
ENDCHAR
STARTCHAR dollar
ENCODING 36
SWIDTH 482 0
DWIDTH 14 0
BBX 11 24 1 -2
BITMAP
0600
0600
1F80
3FE0
3660
6640
6600
6600
6600
7600
3E00
3F00
0FC0
07C0
06E0
0660
0660
0660
4660
66C0
FFC0
1F80
0600
0600
ENDCHAR
STARTCHAR percent
ENCODING 37
SWIDTH 660 0
DWIDTH 19 0
BBX 17 21 1 0
BITMAP
001000
381800
7C1000
EE3000
C63000
C62000
C66000
C66000
EEC000
7CC000
388000
019E00
01BF00
037380
036180
026180
066180
066180
047380
0C3F00
081E00
ENDCHAR
STARTCHAR ampersand
ENCODING 38
SWIDTH 535 0
DWIDTH 15 0
BBX 14 20 1 0
BITMAP
0F00
1F80
39C0
30C0
30C0
30C0
3180
1B80
1F00
1C18
3E38
6730
C370
C3E0
C1E0
C0E0
C1F0
63F0
7F38
1E1C
ENDCHAR
STARTCHAR quotesingle
ENCODING 39
SWIDTH 223 0
DWIDTH 6 0
BBX 2 7 2 13
BITMAP
C0
C0
C0
C0
C0
C0
C0
ENDCHAR
STARTCHAR parenleft
ENCODING 40
SWIDTH 256 0
DWIDTH 7 0
BBX 5 26 1 -5
BITMAP
10
18
30
30
60
60
60
60
C0
C0
C0
C0
C0
C0
C0
C0
C0
C0
60
60
60
70
30
30
18
10
ENDCHAR
STARTCHAR parenright
ENCODING 41
SWIDTH 256 0
DWIDTH 7 0
BBX 5 26 1 -5
BITMAP
40
C0
60
60
30
30
30
30
18
18
18
18
18
18
18
18
18
18
30
30
30
70
60
60
C0
40
ENDCHAR
STARTCHAR asterisk
ENCODING 42
SWIDTH 435 0
DWIDTH 12 0
BBX 10 10 1 10
BITMAP
0C00
0C00
0C00
CCC0
FFC0
1E00
1E00
3F00
3300
6180
ENDCHAR
STARTCHAR plus
ENCODING 43
SWIDTH 666 0
DWIDTH 19 0
BBX 14 14 2 1
BITMAP
0300
0300
0300
0300
0300
0300
FFFC
FFFC
0300
0300
0300
0300
0300
0300
ENDCHAR
STARTCHAR comma
ENCODING 44
SWIDTH 228 0
DWIDTH 7 0
BBX 4 7 1 -4
BITMAP
30
70
60
60
60
C0
C0
ENDCHAR
STARTCHAR hyphen
ENCODING 45
SWIDTH 230 0
DWIDTH 6 0
BBX 4 2 1 6
BITMAP
F0
F0
ENDCHAR
STARTCHAR period
ENCODING 46
SWIDTH 228 0
DWIDTH 6 0
BBX 3 4 2 0
BITMAP
40
E0
E0
E0
ENDCHAR
STARTCHAR slash
ENCODING 47
SWIDTH 250 0
DWIDTH 8 0
BBX 7 22 0 -1
BITMAP
06
06
04
0C
0C
0C
0C
18
18
18
18
30
30
30
30
20
60
60
60
40
C0
C0
ENDCHAR
STARTCHAR zero
ENCODING 48
SWIDTH 482 0
DWIDTH 13 0
BBX 11 20 1 0
BITMAP
1F00
3F80
71C0
60C0
60C0
C060
C060
C060
C060
C060
C060
C060
C060
C060
C060
60C0
60C0
71C0
3F80
1F00
ENDCHAR
STARTCHAR one
ENCODING 49
SWIDTH 482 0
DWIDTH 14 0
BBX 7 20 2 0
BITMAP
0E
1E
3E
F6
66
46
06
06
06
06
06
06
06
06
06
06
06
06
06
06
ENDCHAR
STARTCHAR two
ENCODING 50
SWIDTH 482 0
DWIDTH 14 0
BBX 10 20 1 0
BITMAP
1F00
3F80
7180
60C0
E0C0
00C0
00C0
00C0
0180
0380
0380
0700
0E00
1E00
1C00
3800
7000
7000
FFC0
FFC0
ENDCHAR
STARTCHAR three
ENCODING 51
SWIDTH 482 0
DWIDTH 14 0
BBX 10 20 1 0
BITMAP
1F00
3F80
7180
60C0
00C0
00C0
00C0
01C0
0180
0F00
0F00
0180
00C0
00C0
00C0
40C0
C1C0
E380
7F80
3E00
ENDCHAR
STARTCHAR four
ENCODING 52
SWIDTH 482 0
DWIDTH 13 0
BBX 11 20 1 0
BITMAP
0380
0780
0780
0D80
0D80
1D80
1980
3980
3180
7180
6180
E180
C180
FFE0
FFE0
0180
0180
0180
0180
0180
ENDCHAR
STARTCHAR five
ENCODING 53
SWIDTH 482 0
DWIDTH 14 0
BBX 10 20 2 0
BITMAP
7F80
7F80
7000
7000
6000
6000
6000
7F00
7F80
4380
01C0
00C0
00C0
00C0
00C0
00C0
C1C0
E380
7F80
3E00
ENDCHAR
STARTCHAR six
ENCODING 54
SWIDTH 482 0
DWIDTH 13 0
BBX 11 20 1 0
BITMAP
0700
0600
0E00
0C00
1C00
1800
3800
3F00
7F80
71C0
E0E0
C060
C060
C060
C060
C060
E0C0
71C0
3F80
1F00
ENDCHAR
STARTCHAR seven
ENCODING 55
SWIDTH 482 0
DWIDTH 14 0
BBX 10 20 2 0
BITMAP
FFC0
FFC0
01C0
01C0
0180
0380
0300
0300
0700
0600
0600
0E00
0C00
1C00
1C00
1800
3800
3800
3000
7000
ENDCHAR
STARTCHAR eight
ENCODING 56
SWIDTH 482 0
DWIDTH 14 0
BBX 10 20 2 0
BITMAP
1E00
7F80
6180
C0C0
C0C0
C0C0
C0C0
C1C0
6180
3F00
3F00
6180
C0C0
C0C0
C0C0
C0C0
C0C0
6180
7F80
1E00
ENDCHAR
STARTCHAR nine
ENCODING 57
SWIDTH 482 0
DWIDTH 13 0
BBX 11 20 1 0
BITMAP
1F00
3F80
71C0
E0E0
C060
C060
C060
C060
E0E0
71E0
7FC0
1FC0
0180
0380
0300
0700
0600
0E00
0C00
1C00
ENDCHAR
STARTCHAR colon
ENCODING 58
SWIDTH 268 0
DWIDTH 8 0
BBX 2 14 3 0
BITMAP
C0
C0
C0
C0
00
00
00
00
00
00
C0
C0
C0
C0
ENDCHAR
STARTCHAR semicolon
ENCODING 59
SWIDTH 254 0
DWIDTH 7 0
BBX 4 18 1 -4
BITMAP
30
30
30
30
00
00
00
00
00
00
30
70
60
60
60
60
C0
C0
ENDCHAR
STARTCHAR less
ENCODING 60
SWIDTH 666 0
DWIDTH 19 0
BBX 14 15 2 1
BITMAP
0004
001C
007C
01F0
0FC0
3F00
F800
E000
F800
3F00
0FC0
01F0
007C
001C
0004
ENDCHAR
STARTCHAR equal
ENCODING 61
SWIDTH 666 0
DWIDTH 19 0
BBX 15 7 2 5
BITMAP
FFFE
FFFE
0000
0000
0000
FFFE
FFFE
ENDCHAR
STARTCHAR greater
ENCODING 62
SWIDTH 666 0
DWIDTH 18 0
BBX 14 15 2 1
BITMAP
8000
E000
F800
3E00
0F80
03F0
007C
001C
007C
03F0
0FC0
3E00
F800
E000
8000
ENDCHAR
STARTCHAR question
ENCODING 63
SWIDTH 381 0
DWIDTH 11 0
BBX 9 20 1 0
BITMAP
1E00
7F00
6380
C180
C180
0180
0180
0300
0700
0E00
1C00
1800
1800
1800
0000
0000
0800
1C00
1C00
1C00
ENDCHAR
STARTCHAR at
ENCODING 64
SWIDTH 640 0
DWIDTH 18 0
BBX 16 20 1 0
BITMAP
03E0
0FF8
1C1C
380E
7386
67F7
E673
C673
CC73
CC63
CC63
CC63
CCE6
ECE6
677C
773C
3006
1C1C
0FF8
03E0
ENDCHAR
STARTCHAR A
ENCODING 65
SWIDTH 487 0
DWIDTH 14 0
BBX 13 20 0 0
BITMAP
0780
0780
0780
0D80
0DC0
0CC0
0CC0
1CC0
18E0
1860
1860
3860
3070
3FF0
3FF0
7030
7038
6038
6038
E018
ENDCHAR
STARTCHAR B
ENCODING 66
SWIDTH 500 0
DWIDTH 13 0
BBX 10 20 2 0
BITMAP
FE00
FF80
C380
C1C0
C0C0
C0C0
C0C0
C180
C380
FE00
FF80
C3C0
C1C0
C0C0
C0C0
C0C0
C0C0
C180
FF80
FE00
ENDCHAR
STARTCHAR C
ENCODING 67
SWIDTH 486 0
DWIDTH 14 0
BBX 11 20 2 0
BITMAP
0F80
3FE0
38E0
7040
6000
E000
C000
C000
C000
C000
C000
C000
C000
C000
E000
6000
7040
38E0
3FC0
0F80
ENDCHAR
STARTCHAR D
ENCODING 68
SWIDTH 553 0
DWIDTH 15 0
BBX 12 20 2 0
BITMAP
FE00
FF80
C1C0
C0E0
C060
C060
C030
C030
C030
C030
C030
C030
C030
C030
C060
C060
C0E0
C1C0
FF80
FE00
ENDCHAR
STARTCHAR E
ENCODING 69
SWIDTH 426 0
DWIDTH 12 0
BBX 8 20 2 0
BITMAP
FF
FF
C0
C0
C0
C0
C0
C0
C0
FF
FF
C0
C0
C0
C0
C0
C0
C0
FF
FF
ENDCHAR
STARTCHAR F
ENCODING 70
SWIDTH 405 0
DWIDTH 11 0
BBX 8 20 2 0
BITMAP
FF
FF
C0
C0
C0
C0
C0
C0
C0
FE
FE
C0
C0
C0
C0
C0
C0
C0
C0
C0
ENDCHAR
STARTCHAR G
ENCODING 71
SWIDTH 541 0
DWIDTH 15 0
BBX 12 20 1 0
BITMAP
0F80
3FE0
38E0
7040
6000
E000
C000
C000
C000
C1F0
C1F0
C030
C030
C030
6030
6030
7030
3830
1FF0
07C0
ENDCHAR
STARTCHAR H
ENCODING 72
SWIDTH 583 0
DWIDTH 16 0
BBX 12 20 2 0
BITMAP
C030
C030
C030
C030
C030
C030
C030
C030
C030
FFF0
FFF0
C030
C030
C030
C030
C030
C030
C030
C030
C030
ENDCHAR
STARTCHAR I
ENCODING 73
SWIDTH 246 0
DWIDTH 7 0
BBX 2 20 2 0
BITMAP
C0
C0
C0
C0
C0
C0
C0
C0
C0
C0
C0
C0
C0
C0
C0
C0
C0
C0
C0
C0
ENDCHAR
STARTCHAR J
ENCODING 74
SWIDTH 395 0
DWIDTH 11 0
BBX 9 20 0 0
BITMAP
0180
0180
0180
0180
0180
0180
0180
0180
0180
0180
0180
0180
0180
0180
0180
0180
6180
E380
7F00
3E00
ENDCHAR
STARTCHAR K
ENCODING 75
SWIDTH 499 0
DWIDTH 14 0
BBX 11 20 2 0
BITMAP
C1E0
C1C0
C380
C300
C700
CE00
CC00
DC00
F800
F800
F800
DC00
CC00
CE00
C700
C700
C380
C1C0
C1C0
C0E0
ENDCHAR
STARTCHAR L
ENCODING 76
SWIDTH 373 0
DWIDTH 10 0
BBX 8 20 2 0
BITMAP
C0
C0
C0
C0
C0
C0
C0
C0
C0
C0
C0
C0
C0
C0
C0
C0
C0
C0
FF
FF
ENDCHAR
STARTCHAR M
ENCODING 77
SWIDTH 729 0
DWIDTH 20 0
BBX 16 20 2 0
BITMAP
F00F
F00F
F01F
F81F
F81F
D81B
D83B
DC3B
DC3B
CC33
CC73
CE73
C663
C663
C7E3
C7E3
C3C3
C3C3
C3C3
C183
ENDCHAR
STARTCHAR N
ENCODING 78
SWIDTH 573 0
DWIDTH 16 0
BBX 12 20 2 0
BITMAP
E030
F030
F030
F830
F830
FC30
DC30
DC30
CE30
CE30
C730
C730
C3B0
C3B0
C3B0
C1F0
C1F0
C0F0
C0F0
C070
ENDCHAR
STARTCHAR O
ENCODING 79
SWIDTH 579 0
DWIDTH 15 0
BBX 13 20 1 0
BITMAP
0F80
1FC0
38E0
7070
6030
6030
C018
C018
C018
C018
C018
C018
C018
C018
6030
6030
7070
38E0
1FC0
0F80
ENDCHAR
STARTCHAR P
ENCODING 80
SWIDTH 475 0
DWIDTH 13 0
BBX 10 20 2 0
BITMAP
FE00
FF80
C180
C0C0
C0C0
C0C0
C0C0
C1C0
C180
FF80
FE00
C000
C000
C000
C000
C000
C000
C000
C000
C000
ENDCHAR
STARTCHAR Q
ENCODING 81
SWIDTH 584 0
DWIDTH 15 0
BBX 14 20 1 0
BITMAP
0F80
1FC0
38E0
7070
6030
6030
C018
C018
C018
C018
C018
C018
C018
C018
6030
6030
7060
38E0
1FFC
0FFC
ENDCHAR
STARTCHAR R
ENCODING 82
SWIDTH 492 0
DWIDTH 13 0
BBX 10 20 2 0
BITMAP
FE00
FF80
C180
C0C0
C0C0
C0C0
C0C0
C1C0
C180
FF80
FE00
C600
C700
C700
C300
C380
C180
C180
C1C0
C0C0
ENDCHAR
STARTCHAR S
ENCODING 83
SWIDTH 440 0
DWIDTH 12 0
BBX 10 20 1 0
BITMAP
1F00
3FC0
6180
C000
C000
C000
C000
E000
7800
3E00
1F00
0780
01C0
00C0
00C0
00C0
40C0
E180
7F80
3E00
ENDCHAR
STARTCHAR T
ENCODING 84
SWIDTH 359 0
DWIDTH 10 0
BBX 10 20 0 0
BITMAP
FFC0
FFC0
0C00
0C00
0C00
0C00
0C00
0C00
0C00
0C00
0C00
0C00
0C00
0C00
0C00
0C00
0C00
0C00
0C00
0C00
ENDCHAR
STARTCHAR U
ENCODING 85
SWIDTH 557 0
DWIDTH 15 0
BBX 11 20 2 0
BITMAP
C060
C060
C060
C060
C060
C060
C060
C060
C060
C060
C060
C060
C060
C060
C060
C060
60C0
71C0
3F80
1F00
ENDCHAR
STARTCHAR V
ENCODING 86
SWIDTH 477 0
DWIDTH 13 0
BBX 13 20 0 0
BITMAP
E038
6038
6038
7030
7030
7070
3070
3860
3860
38E0
18E0
18C0
1CC0
1CC0
0DC0
0D80
0F80
0F80
0780
0700
ENDCHAR
STARTCHAR W
ENCODING 87
SWIDTH 744 0
DWIDTH 21 0
BBX 21 20 0 0
BITMAP
E07038
607030
607030
70F870
70D870
70D860
30D860
30D860
31DC60
398CE0
398CC0
198CC0
198CC0
198EC0
1F0EC0
1F07C0
0F0780
0F0780
0F0780
0F0780
ENDCHAR
STARTCHAR X
ENCODING 88
SWIDTH 469 0
DWIDTH 13 0
BBX 13 20 0 0
BITMAP
7030
7070
3060
38E0
18C0
1DC0
0D80
0F80
0700
0700
0700
0F80
0D80
1DC0
18C0
38E0
3060
7070
6030
E038
ENDCHAR
STARTCHAR Y
ENCODING 89
SWIDTH 437 0
DWIDTH 12 0
BBX 12 20 0 0
BITMAP
E070
6060
70E0
30E0
30C0
39C0
1980
1980
0F00
0F00
0F00
0600
0600
0600
0600
0600
0600
0600
0600
0600
ENDCHAR
STARTCHAR Z
ENCODING 90
SWIDTH 411 0
DWIDTH 12 0
BBX 9 20 1 0
BITMAP
FF80
FF80
0180
0380
0300
0700
0700
0E00
0E00
1C00
1C00
1800
3800
3000
7000
7000
E000
E000
FF80
FF80
ENDCHAR
STARTCHAR bracketleft
ENCODING 91
SWIDTH 254 0
DWIDTH 7 0
BBX 5 25 1 -4
BITMAP
F8
F8
C0
C0
C0
C0
C0
C0
C0
C0
C0
C0
C0
C0
C0
C0
C0
C0
C0
C0
C0
C0
C0
F8
F8
ENDCHAR
STARTCHAR backslash
ENCODING 92
SWIDTH 250 0
DWIDTH 8 0
BBX 7 22 0 -1
BITMAP
C0
C0
40
60
60
60
20
30
30
30
30
18
18
18
18
08
0C
0C
0C
04
06
06
ENDCHAR
STARTCHAR bracketright
ENCODING 93
SWIDTH 254 0
DWIDTH 7 0
BBX 5 25 1 -4
BITMAP
F8
F8
18
18
18
18
18
18
18
18
18
18
18
18
18
18
18
18
18
18
18
18
18
F8
F8
ENDCHAR
STARTCHAR asciicircum
ENCODING 94
SWIDTH 666 0
DWIDTH 19 0
BBX 15 11 2 9
BITMAP
0380
0380
07C0
0EE0
0EE0
1C70
1830
3838
3018
701C
E00E
ENDCHAR
STARTCHAR underscore
ENCODING 95
SWIDTH 500 0
DWIDTH 14 0
BBX 14 2 0 -4
BITMAP
FFFC
FFFC
ENDCHAR
STARTCHAR grave
ENCODING 96
SWIDTH 235 0
DWIDTH 7 0
BBX 5 4 0 16
BITMAP
E0
60
30
18
ENDCHAR
STARTCHAR a
ENCODING 97
SWIDTH 415 0
DWIDTH 12 0
BBX 9 14 1 0
BITMAP
3E00
7F00
E380
0180
0180
1F80
7F80
6180
C180
C180
C380
E380
7F80
3D80
ENDCHAR
STARTCHAR b
ENCODING 98
SWIDTH 480 0
DWIDTH 13 0
BBX 10 21 2 0
BITMAP
C000
C000
C000
C000
C000
C000
C000
DE00
FF00
F380
E1C0
C0C0
C0C0
C0C0
C0C0
C0C0
C0C0
E180
F380
FF00
DE00
ENDCHAR
STARTCHAR c
ENCODING 99
SWIDTH 344 0
DWIDTH 10 0
BBX 8 14 1 0
BITMAP
3E
7F
62
E0
C0
C0
C0
C0
C0
C0
E0
62
7F
3E
ENDCHAR
STARTCHAR d
ENCODING 100
SWIDTH 480 0
DWIDTH 13 0
BBX 10 21 1 0
BITMAP
00C0
00C0
00C0
00C0
00C0
00C0
00C0
1CC0
7FC0
73C0
E1C0
C0C0
C0C0
C0C0
C0C0
C0C0
C0C0
61C0
63C0
3FC0
1EC0
ENDCHAR
STARTCHAR e
ENCODING 101
SWIDTH 439 0
DWIDTH 12 0
BBX 10 14 1 0
BITMAP
1E00
3F80
7180
60C0
C0C0
C0C0
FFC0
FFC0
C000
C000
6080
71C0
3F80
1F00
ENDCHAR
STARTCHAR f
ENCODING 102
SWIDTH 250 0
DWIDTH 7 0
BBX 7 22 0 0
BITMAP
0E
1E
38
30
30
30
30
30
FC
FC
30
30
30
30
30
30
30
30
30
30
30
30
ENDCHAR
STARTCHAR g
ENCODING 103
SWIDTH 480 0
DWIDTH 13 0
BBX 10 21 1 -7
BITMAP
3EC0
7FC0
73C0
E1C0
C0C0
C0C0
C0C0
C0C0
C0C0
C0C0
61C0
63C0
3FC0
1EC0
00C0
00C0
00C0
41C0
E180
7F00
3E00
ENDCHAR
STARTCHAR h
ENCODING 104
SWIDTH 482 0
DWIDTH 13 0
BBX 9 21 2 0
BITMAP
C000
C000
C000
C000
C000
C000
C000
CE00
DF00
E380
E180
C180
C180
C180
C180
C180
C180
C180
C180
C180
C180
ENDCHAR
STARTCHAR i
ENCODING 105
SWIDTH 232 0
DWIDTH 7 0
BBX 2 20 2 0
BITMAP
C0
C0
C0
C0
00
00
C0
C0
C0
C0
C0
C0
C0
C0
C0
C0
C0
C0
C0
C0
ENDCHAR
STARTCHAR j
ENCODING 106
SWIDTH 233 0
DWIDTH 7 0
BBX 5 27 -1 -7
BITMAP
18
18
18
18
00
00
18
18
18
18
18
18
18
18
18
18
18
18
18
18
18
18
18
18
38
F0
E0
ENDCHAR
STARTCHAR k
ENCODING 107
SWIDTH 421 0
DWIDTH 12 0
BBX 9 21 2 0
BITMAP
C000
C000
C000
C000
C000
C000
C000
C380
C700
CE00
CC00
DC00
F800
F000
F800
DC00
CC00
CE00
C700
C700
C380
ENDCHAR
STARTCHAR l
ENCODING 108
SWIDTH 232 0
DWIDTH 7 0
BBX 2 21 2 0
BITMAP
C0
C0
C0
C0
C0
C0
C0
C0
C0
C0
C0
C0
C0
C0
C0
C0
C0
C0
C0
C0
C0
ENDCHAR
STARTCHAR m
ENCODING 109
SWIDTH 729 0
DWIDTH 20 0
BBX 16 14 2 0
BITMAP
CE1C
DF3E
E3C7
E1C3
C183
C183
C183
C183
C183
C183
C183
C183
C183
C183
ENDCHAR
STARTCHAR n
ENCODING 110
SWIDTH 483 0
DWIDTH 13 0
BBX 9 14 2 0
BITMAP
CE00
DF00
E380
E180
C180
C180
C180
C180
C180
C180
C180
C180
C180
C180
ENDCHAR
STARTCHAR o
ENCODING 111
SWIDTH 455 0
DWIDTH 12 0
BBX 10 14 1 0
BITMAP
1E00
3F00
7380
6180
C0C0
C0C0
C0C0
C0C0
C0C0
C0C0
6180
7380
3F00
1E00
ENDCHAR
STARTCHAR p
ENCODING 112
SWIDTH 480 0
DWIDTH 13 0
BBX 10 20 2 -6
BITMAP
DE00
FF00
F380
E180
C0C0
C0C0
C0C0
C0C0
C0C0
C0C0
E1C0
F380
FF00
DE00
C000
C000
C000
C000
C000
C000
ENDCHAR
STARTCHAR q
ENCODING 113
SWIDTH 480 0
DWIDTH 13 0
BBX 10 20 1 -6
BITMAP
1EC0
3FC0
73C0
61C0
C0C0
C0C0
C0C0
C0C0
C0C0
C0C0
E1C0
63C0
7FC0
1EC0
00C0
00C0
00C0
00C0
00C0
00C0
ENDCHAR
STARTCHAR r
ENCODING 114
SWIDTH 285 0
DWIDTH 8 0
BBX 5 14 2 0
BITMAP
D8
D8
F0
E0
C0
C0
C0
C0
C0
C0
C0
C0
C0
C0
ENDCHAR
STARTCHAR s
ENCODING 115
SWIDTH 353 0
DWIDTH 10 0
BBX 8 14 1 0
BITMAP
3E
7F
E2
C0
C0
E0
7C
1E
07
03
03
C7
FE
3C
ENDCHAR
STARTCHAR t
ENCODING 116
SWIDTH 264 0
DWIDTH 7 0
BBX 7 18 0 0
BITMAP
30
30
30
30
FE
FE
30
30
30
30
30
30
30
30
30
30
3C
1E
ENDCHAR
STARTCHAR u
ENCODING 117
SWIDTH 483 0
DWIDTH 13 0
BBX 9 14 2 0
BITMAP
C180
C180
C180
C180
C180
C180
C180
C180
C180
C180
C380
E380
7F80
3D80
ENDCHAR
STARTCHAR v
ENCODING 118
SWIDTH 396 0
DWIDTH 11 0
BBX 11 14 0 0
BITMAP
E0E0
60C0
60C0
71C0
31C0
3180
3180
3980
1B00
1B00
1B00
1F00
0E00
0E00
ENDCHAR
STARTCHAR w
ENCODING 119
SWIDTH 600 0
DWIDTH 17 0
BBX 15 14 1 0
BITMAP
C386
C386
C38E
E38C
E68C
66CC
66CC
64DC
64D8
3C58
3C78
3C78
3878
3870
ENDCHAR
STARTCHAR x
ENCODING 120
SWIDTH 392 0
DWIDTH 11 0
BBX 11 14 0 0
BITMAP
71C0
7180
3180
1B00
1B00
0E00
0E00
0E00
1F00
1B00
3B80
3180
71C0
E0E0
ENDCHAR
STARTCHAR y
ENCODING 121
SWIDTH 396 0
DWIDTH 11 0
BBX 11 21 0 -7
BITMAP
E0E0
60C0
60C0
70C0
31C0
3180
3180
3980
1B80
1B00
1B00
0F00
0F00
0E00
0E00
0E00
0E00
0C00
1C00
7800
7000
ENDCHAR
STARTCHAR z
ENCODING 122
SWIDTH 347 0
DWIDTH 10 0
BBX 8 14 1 0
BITMAP
FF
FF
07
06
0E
1C
18
38
30
70
E0
E0
FF
FF
ENDCHAR
STARTCHAR braceleft
ENCODING 123
SWIDTH 254 0
DWIDTH 7 0
BBX 6 25 0 -4
BITMAP
1C
3C
30
30
30
30
30
30
30
30
30
70
E0
E0
70
30
30
30
30
30
30
30
30
3C
1C
ENDCHAR
STARTCHAR bar
ENCODING 124
SWIDTH 222 0
DWIDTH 6 0
BBX 2 28 2 -7
BITMAP
C0
C0
C0
C0
C0
C0
C0
C0
C0
C0
C0
C0
C0
C0
C0
C0
C0
C0
C0
C0
C0
C0
C0
C0
C0
C0
C0
C0
ENDCHAR
STARTCHAR braceright
ENCODING 125
SWIDTH 254 0
DWIDTH 7 0
BBX 6 25 2 -4
BITMAP
E0
F0
30
30
30
30
30
30
30
30
30
38
1C
1C
38
30
30
30
30
30
30
30
30
F0
E0
ENDCHAR
STARTCHAR asciitilde
ENCODING 126
SWIDTH 666 0
DWIDTH 18 0
BBX 14 5 2 6
BITMAP
3C00
7E08
E31C
41F8
40F0
ENDCHAR
STARTCHAR uni00A0
ENCODING 160
SWIDTH 190 0
DWIDTH 5 0
BBX 1 1 0 0
BITMAP
00
ENDCHAR
STARTCHAR exclamdown
ENCODING 161
SWIDTH 302 0
DWIDTH 8 0
BBX 3 20 3 -5
BITMAP
C0
E0
E0
40
00
00
00
C0
C0
C0
C0
C0
C0
C0
C0
C0
C0
C0
C0
C0
ENDCHAR
STARTCHAR cent
ENCODING 162
SWIDTH 482 0
DWIDTH 14 0
BBX 9 18 2 -2
BITMAP
0400
0400
1F00
3F80
7500
6400
C400
C400
C400
C400
C400
C400
6400
7500
3F80
1F00
0400
0400
ENDCHAR
STARTCHAR sterling
ENCODING 163
SWIDTH 482 0
DWIDTH 14 0
BBX 11 20 1 0
BITMAP
03C0
0FE0
0C40
1C00
1800
1800
1800
1800
1800
7F80
7F80
1800
1800
1800
1800
1800
1800
1800
FFE0
FFE0
ENDCHAR
STARTCHAR currency
ENCODING 164
SWIDTH 482 0
DWIDTH 14 0
BBX 12 15 1 0
BITMAP
8020
CF70
FFE0
71C0
60E0
6060
6060
6060
6060
6060
60E0
71C0
7FE0
DF70
C030
ENDCHAR
STARTCHAR yen
ENCODING 165
SWIDTH 482 0
DWIDTH 14 0
BBX 12 20 1 0
BITMAP
E070
6060
70E0
30C0
30C0
19C0
1980
0D80
0F00
7FE0
7FE0
0600
0600
7FE0
7FE0
0600
0600
0600
0600
0600
ENDCHAR
STARTCHAR brokenbar
ENCODING 166
SWIDTH 222 0
DWIDTH 6 0
BBX 2 24 2 -5
BITMAP
C0
C0
C0
C0
C0
C0
C0
C0
C0
C0
00
00
00
00
C0
C0
C0
C0
C0
C0
C0
C0
C0
C0
ENDCHAR
STARTCHAR section
ENCODING 167
SWIDTH 488 0
DWIDTH 14 0
BBX 11 24 1 -4
BITMAP
0F80
1FE0
3860
3000
3000
3000
3800
1E00
1F80
31C0
60E0
6060
6060
7060
3CC0
1F80
0780
01C0
00C0
00C0
40C0
61C0
FF80
1F00
ENDCHAR
STARTCHAR dieresis
ENCODING 168
SWIDTH 235 0
DWIDTH 5 0
BBX 6 2 0 17
BITMAP
CC
CC
ENDCHAR
STARTCHAR copyright
ENCODING 169
SWIDTH 640 0
DWIDTH 18 0
BBX 16 22 1 -1
BITMAP
07E0
0FF0
1C38
300C
700E
63C6
67E6
C623
CC03
CC03
CC03
CC03
CC03
CC03
C623
67E6
63C6
700E
300C
1C38
0FF0
07E0
ENDCHAR
STARTCHAR ordfeminine
ENCODING 170
SWIDTH 304 0
DWIDTH 9 0
BBX 6 9 1 11
BITMAP
78
FC
8C
7C
FC
CC
CC
FC
7C
ENDCHAR
STARTCHAR guillemotleft
ENCODING 171
SWIDTH 362 0
DWIDTH 10 0
BBX 8 12 1 1
BITMAP
13
33
26
66
64
CC
CC
64
66
22
33
13
ENDCHAR
STARTCHAR logicalnot
ENCODING 172
SWIDTH 666 0
DWIDTH 19 0
BBX 14 8 3 4
BITMAP
FFFC
FFFC
000C
000C
000C
000C
000C
000C
ENDCHAR
STARTCHAR uni00AD
ENCODING 173
SWIDTH 230 0
DWIDTH 6 0
BBX 4 2 1 6
BITMAP
F0
F0
ENDCHAR
STARTCHAR registered
ENCODING 174
SWIDTH 480 0
DWIDTH 14 0
BBX 10 12 2 8
BITMAP
1E00
2100
7C80
BE40
B640
B640
BE40
BC40
B440
7680
7380
1E00
ENDCHAR
STARTCHAR macron
ENCODING 175
SWIDTH 235 0
DWIDTH 6 0
BBX 7 2 0 17
BITMAP
FE
FE
ENDCHAR
STARTCHAR degree
ENCODING 176
SWIDTH 320 0
DWIDTH 9 0
BBX 7 9 1 11
BITMAP
38
7C
EE
C6
C6
C6
EE
7C
38
ENDCHAR
STARTCHAR plusminus
ENCODING 177
SWIDTH 666 0
DWIDTH 19 0
BBX 15 15 2 1
BITMAP
0300
0300
0300
0300
FFFC
FFFC
0300
0300
0300
0300
0000
0000
0000
FFFE
FFFE
ENDCHAR
STARTCHAR twosuperior
ENCODING 178
SWIDTH 320 0
DWIDTH 9 0
BBX 7 12 1 8
BITMAP
3C
7E
E6
C6
06
0C
1C
18
30
60
FE
FE
ENDCHAR
STARTCHAR threesuperior
ENCODING 179
SWIDTH 320 0
DWIDTH 9 0
BBX 7 13 1 7
BITMAP
3C
7E
C6
06
06
1C
1C
06
06
06
CE
FC
78
ENDCHAR
STARTCHAR acute
ENCODING 180
SWIDTH 235 0
DWIDTH 8 0
BBX 5 4 2 16
BITMAP
38
30
60
C0
ENDCHAR
STARTCHAR mu
ENCODING 181
SWIDTH 578 0
DWIDTH 15 0
BBX 11 19 2 -6
BITMAP
C060
C060
C060
C060
C060
C060
C060
C060
C060
C0E0
E1E0
FFE0
FE60
C000
C000
C000
C000
C000
C000
ENDCHAR
STARTCHAR paragraph
ENCODING 182
SWIDTH 600 0
DWIDTH 16 0
BBX 13 24 1 -4
BITMAP
0FF8
3FF8
7F18
FF18
FF18
FF18
FF18
FF18
7F18
3F18
0F18
0318
0318
0318
0318
0318
0318
0318
0318
0318
0318
0318
0318
0318
ENDCHAR
STARTCHAR periodcentered
ENCODING 183
SWIDTH 228 0
DWIDTH 6 0
BBX 3 4 2 5
BITMAP
40
E0
E0
E0
ENDCHAR
STARTCHAR cedilla
ENCODING 184
SWIDTH 235 0
DWIDTH 7 0
BBX 6 8 0 -7
BITMAP
30
20
78
7C
0C
0C
FC
70
ENDCHAR
STARTCHAR onesuperior
ENCODING 185
SWIDTH 320 0
DWIDTH 9 0
BBX 5 12 1 8
BITMAP
38
78
F8
98
18
18
18
18
18
18
18
18
ENDCHAR
STARTCHAR ordmasculine
ENCODING 186
SWIDTH 304 0
DWIDTH 9 0
BBX 7 9 1 11
BITMAP
38
7C
CE
C6
C6
C6
CE
7C
38
ENDCHAR
STARTCHAR guillemotright
ENCODING 187
SWIDTH 362 0
DWIDTH 10 0
BBX 8 12 1 1
BITMAP
CC
CC
66
66
32
33
33
32
66
64
CC
CC
ENDCHAR
STARTCHAR onequarter
ENCODING 188
SWIDTH 740 0
DWIDTH 21 0
BBX 18 20 1 0
BITMAP
380C00
780800
F81800
D81800
181000
183000
183000
186000
186380
184780
18C780
18C580
198D80
018980
011980
031180
033FC0
023FC0
060180
060180
ENDCHAR
STARTCHAR onehalf
ENCODING 189
SWIDTH 740 0
DWIDTH 20 0
BBX 18 20 1 0
BITMAP
380C00
780800
F81800
D81800
181000
183000
183000
186780
186F80
185CC0
18D8C0
18C0C0
1981C0
018180
010300
030600
030E00
020C00
061FC0
061FC0
ENDCHAR
STARTCHAR threequarters
ENCODING 190
SWIDTH 740 0
DWIDTH 21 0
BBX 18 20 1 0
BITMAP
3C0C00
7E0800
C61800
061800
061000
1C3000
1C3000
066000
066380
064780
CEC780
FCC580
798D80
018980
011980
031980
033FC0
023FC0
060180
060180
ENDCHAR
STARTCHAR questiondown
ENCODING 191
SWIDTH 381 0
DWIDTH 11 0
BBX 9 21 1 -6
BITMAP
1C00
1C00
1C00
0800
0000
0000
0000
0C00
0C00
0C00
1C00
3800
7000
6000
C000
C000
C180
C380
E300
7F00
3C00
ENDCHAR
STARTCHAR Agrave
ENCODING 192
SWIDTH 487 0
DWIDTH 14 0
BBX 13 25 0 0
BITMAP
1C00
0600
0600
0300
0000
0780
0780
0780
0D80
0DC0
0CC0
0CC0
1CC0
18E0
1860
1860
3860
3070
3FF0
3FF0
7030
7038
6038
6038
E018
ENDCHAR
STARTCHAR Aacute
ENCODING 193
SWIDTH 487 0
DWIDTH 14 0
BBX 13 25 0 0
BITMAP
00C0
0180
0380
0300
0000
0780
0780
0780
0D80
0DC0
0CC0
0CC0
1CC0
18E0
1860
1860
3860
3070
3FF0
3FF0
7030
7038
6038
6038
E018
ENDCHAR
STARTCHAR Acircumflex
ENCODING 194
SWIDTH 487 0
DWIDTH 14 0
BBX 13 25 0 0
BITMAP
0700
0780
0CC0
18E0
0000
0780
0780
0780
0D80
0DC0
0CC0
0CC0
1CC0
18E0
1860
1860
3860
3070
3FF0
3FF0
7030
7038
6038
6038
E018
ENDCHAR
STARTCHAR Atilde
ENCODING 195
SWIDTH 487 0
DWIDTH 13 0
BBX 13 25 0 0
BITMAP
0E40
1FC0
1980
0000
0000
0F00
0F00
0D00
0D80
1D80
1D80
1C80
1CC0
3CC0
38C0
38C0
3860
7860
7FE0
7FE0
6070
E070
E030
C030
C038
ENDCHAR
STARTCHAR Adieresis
ENCODING 196
SWIDTH 487 0
DWIDTH 13 0
BBX 13 25 0 0
BITMAP
18C0
18C0
0000
0000
0000
0780
0780
0580
0D80
0DC0
0DC0
09C0
18C0
18E0
18E0
10E0
3060
3070
3FF0
3FF0
7030
7038
6038
6038
E018
ENDCHAR
STARTCHAR Aring
ENCODING 197
SWIDTH 487 0
DWIDTH 14 0
BBX 13 27 0 0
BITMAP
0700
0F80
0880
0880
0880
0F80
0700
0700
0700
0D80
0D80
0D80
0D80
18C0
18C0
18C0
18C0
38E0
3060
3060
3FE0
7FE0
7070
6070
6030
E030
E038
ENDCHAR
STARTCHAR AE
ENCODING 198
SWIDTH 649 0
DWIDTH 18 0
BBX 17 20 0 0
BITMAP
01FF80
01FF80
03E000
036000
036000
076000
066000
066000
0E6000
0C7F00
1C7F00
1C6000
186000
3FE000
3FE000
306000
706000
706000
607F80
E07F80
ENDCHAR
STARTCHAR Ccedilla
ENCODING 199
SWIDTH 486 0
DWIDTH 14 0
BBX 12 27 1 -7
BITMAP
0F80
3FE0
38E0
7040
6000
E000
C000
C000
C000
C000
C000
C000
C000
E000
6000
7000
7820
3FF0
1FE0
0F80
0200
0380
07C0
00C0
00C0
0FC0
0700
ENDCHAR
STARTCHAR Egrave
ENCODING 200
SWIDTH 426 0
DWIDTH 12 0
BBX 8 25 2 0
BITMAP
60
30
18
18
04
FF
FF
C0
C0
C0
C0
C0
C0
C0
FF
FF
C0
C0
C0
C0
C0
C0
C0
FF
FF
ENDCHAR
STARTCHAR Eacute
ENCODING 201
SWIDTH 426 0
DWIDTH 12 0
BBX 8 25 2 0
BITMAP
07
06
0C
18
00
FF
FF
C0
C0
C0
C0
C0
C0
C0
FF
FF
C0
C0
C0
C0
C0
C0
C0
FF
FF
ENDCHAR
STARTCHAR Ecircumflex
ENCODING 202
SWIDTH 426 0
DWIDTH 12 0
BBX 8 25 2 0
BITMAP
1C
3C
66
63
80
FF
FF
C0
C0
C0
C0
C0
C0
C0
FF
FF
C0
C0
C0
C0
C0
C0
C0
FF
FF
ENDCHAR
STARTCHAR Edieresis
ENCODING 203
SWIDTH 426 0
DWIDTH 11 0
BBX 8 25 2 0
BITMAP
66
66
00
00
00
FF
FF
C0
C0
C0
C0
C0
C0
C0
FF
FF
C0
C0
C0
C0
C0
C0
C0
FF
FF
ENDCHAR
STARTCHAR Igrave
ENCODING 204
SWIDTH 246 0
DWIDTH 7 0
BBX 5 25 -1 0
BITMAP
E0
60
30
18
00
18
18
18
18
18
18
18
18
18
18
18
18
18
18
18
18
18
18
18
18
ENDCHAR
STARTCHAR Iacute
ENCODING 205
SWIDTH 246 0
DWIDTH 7 0
BBX 5 25 2 0
BITMAP
38
30
60
C0
00
C0
C0
C0
C0
C0
C0
C0
C0
C0
C0
C0
C0
C0
C0
C0
C0
C0
C0
C0
C0
ENDCHAR
STARTCHAR Icircumflex
ENCODING 206
SWIDTH 246 0
DWIDTH 7 0
BBX 8 25 -1 0
BITMAP
1C
3C
66
C3
00
18
18
18
18
18
18
18
18
18
18
18
18
18
18
18
18
18
18
18
18
ENDCHAR
STARTCHAR Idieresis
ENCODING 207
SWIDTH 246 0
DWIDTH 6 0
BBX 7 25 0 0
BITMAP
C6
C6
00
00
00
30
30
30
30
30
30
30
30
30
30
30
30
30
30
30
30
30
30
30
30
ENDCHAR
STARTCHAR Eth
ENCODING 208
SWIDTH 551 0
DWIDTH 15 0
BBX 14 20 0 0
BITMAP
3F80
3FE0
3070
3038
3018
3018
300C
300C
300C
FF0C
FF0C
300C
300C
300C
3018
3018
3038
3070
3FE0
3F80
ENDCHAR
STARTCHAR Ntilde
ENCODING 209
SWIDTH 573 0
DWIDTH 16 0
BBX 12 25 2 0
BITMAP
1C40
3FC0
3380
0000
0000
E030
F030
F030
F830
F830
DC30
DC30
DC30
CE30
CE30
C730
C730
C3B0
C3B0
C3B0
C1F0
C1F0
C0F0
C0F0
C070
ENDCHAR
STARTCHAR Ograve
ENCODING 210
SWIDTH 579 0
DWIDTH 15 0
BBX 13 25 1 0
BITMAP
1C00
0C00
0600
0200
0100
0F80
1FC0
38E0
7070
6030
6030
C018
C018
C018
C018
C018
C018
C018
C018
6030
6030
7070
38E0
1FC0
0F80
ENDCHAR
STARTCHAR Oacute
ENCODING 211
SWIDTH 579 0
DWIDTH 15 0
BBX 13 25 1 0
BITMAP
00C0
0180
0300
0300
0000
0F80
1FC0
38E0
7070
6030
6030
C018
C018
C018
C018
C018
C018
C018
C018
6030
6030
7070
38E0
1FC0
0F80
ENDCHAR
STARTCHAR Ocircumflex
ENCODING 212
SWIDTH 579 0
DWIDTH 15 0
BBX 13 25 1 0
BITMAP
0700
0D80
19C0
38E0
0000
0F80
1FC0
38E0
7070
6030
6030
C018
C018
C018
C018
C018
C018
C018
C018
6030
6030
7070
38E0
1FC0
0F80
ENDCHAR
STARTCHAR Otilde
ENCODING 213
SWIDTH 579 0
DWIDTH 16 0
BBX 13 25 2 0
BITMAP
1C40
3FC0
3380
0000
0000
0F80
1FC0
38E0
7070
6030
6030
C018
C018
C018
C018
C018
C018
C018
C018
6030
6030
7070
38E0
1FC0
0F80
ENDCHAR
STARTCHAR Odieresis
ENCODING 214
SWIDTH 579 0
DWIDTH 16 0
BBX 13 25 2 0
BITMAP
1980
1980
0000
0000
0000
0F80
1FC0
38E0
7070
6030
6030
C018
C018
C018
C018
C018
C018
C018
C018
6030
6030
7070
38E0
1FC0
0F80
ENDCHAR
STARTCHAR multiply
ENCODING 215
SWIDTH 666 0
DWIDTH 19 0
BBX 13 13 3 2
BITMAP
4010
E038
7070
38E0
1DC0
0F80
0700
0F80
1DC0
38E0
7070
E038
4010
ENDCHAR
STARTCHAR Oslash
ENCODING 216
SWIDTH 579 0
DWIDTH 15 0
BBX 13 22 1 -1
BITMAP
0020
0FB0
1FE0
38E0
7070
60F0
60B0
E1B8
C118
C318
C218
C618
C418
CC18
E838
7830
7030
7070
38E0
7FC0
4F80
C000
ENDCHAR
STARTCHAR Ugrave
ENCODING 217
SWIDTH 557 0
DWIDTH 15 0
BBX 11 25 2 0
BITMAP
3000
1800
0C00
0C00
0200
C060
C060
C060
C060
C060
C060
C060
C060
C060
C060
C060
C060
C060
C060
C060
C060
60C0
71C0
3F80
1F00
ENDCHAR
STARTCHAR Uacute
ENCODING 218
SWIDTH 557 0
DWIDTH 15 0
BBX 11 25 2 0
BITMAP
0380
0300
0600
0600
0800
C060
C060
C060
C060
C060
C060
C060
C060
C060
C060
C060
C060
C060
C060
C060
C060
60C0
71C0
3F80
1F00
ENDCHAR
STARTCHAR Ucircumflex
ENCODING 219
SWIDTH 557 0
DWIDTH 15 0
BBX 11 25 2 0
BITMAP
0E00
1B00
1B80
3180
0040
C060
C060
C060
C060
C060
C060
C060
C060
C060
C060
C060
C060
C060
C060
C060
C060
60C0
71C0
3F80
1F00
ENDCHAR
STARTCHAR Udieresis
ENCODING 220
SWIDTH 557 0
DWIDTH 16 0
BBX 11 25 2 0
BITMAP
3180
3180
0000
0000
0000
C060
C060
C060
C060
C060
C060
C060
C060
C060
C060
C060
C060
C060
C060
C060
C060
60C0
71C0
3F80
1F00
ENDCHAR
STARTCHAR Yacute
ENCODING 221
SWIDTH 437 0
DWIDTH 12 0
BBX 12 25 0 0
BITMAP
01C0
0180
0300
0600
0000
E070
6060
70E0
30E0
30C0
39C0
1980
1980
0F00
0F00
0F00
0600
0600
0600
0600
0600
0600
0600
0600
0600
ENDCHAR
STARTCHAR Thorn
ENCODING 222
SWIDTH 492 0
DWIDTH 13 0
BBX 10 20 2 0
BITMAP
C000
C000
C000
C000
FE00
FF80
C380
C0C0
C0C0
C0C0
C0C0
C0C0
C380
FF80
FE00
C000
C000
C000
C000
C000
ENDCHAR
STARTCHAR germandbls
ENCODING 223
SWIDTH 467 0
DWIDTH 13 0
BBX 10 21 2 0
BITMAP
1E00
7F00
6380
E180
C180
C180
C180
C300
CF00
CC00
C300
C180
C080
C0C0
C0C0
C0C0
C0C0
C1C0
C380
CF80
CF00
ENDCHAR
STARTCHAR agrave
ENCODING 224
SWIDTH 415 0
DWIDTH 12 0
BBX 9 20 1 0
BITMAP
7000
3000
1800
0C00
0000
0000
3E00
FF00
4380
0180
0180
1F80
7F80
6180
C180
C180
C380
E380
7F80
3D80
ENDCHAR
STARTCHAR aacute
ENCODING 225
SWIDTH 415 0
DWIDTH 12 0
BBX 9 20 1 0
BITMAP
0380
0700
0600
0C00
0000
0000
3E00
FF00
4380
0180
0180
1F80
7F80
6180
C180
C180
C380
E380
7F80
3D80
ENDCHAR
STARTCHAR acircumflex
ENCODING 226
SWIDTH 415 0
DWIDTH 12 0
BBX 9 20 1 0
BITMAP
1C00
3600
3300
6180
0000
0000
3E00
FF00
4380
0180
0180
1F80
7F80
6180
C180
C180
C380
E380
7F80
3D80
ENDCHAR
STARTCHAR atilde
ENCODING 227
SWIDTH 415 0
DWIDTH 12 0
BBX 9 19 1 0
BITMAP
7880
FF80
C700
0000
0000
3E00
7F00
E380
0180
0180
1F80
7F80
6180
C180
C180
C380
E380
7F80
3D80
ENDCHAR
STARTCHAR adieresis
ENCODING 228
SWIDTH 415 0
DWIDTH 12 0
BBX 9 19 1 0
BITMAP
6300
6300
0000
0000
0000
3E00
7F00
E380
0180
0180
1F80
7F80
6180
C180
C180
C380
E380
7F80
3D80
ENDCHAR
STARTCHAR aring
ENCODING 229
SWIDTH 415 0
DWIDTH 11 0
BBX 8 22 1 0
BITMAP
1C
3E
22
22
22
3E
1C
00
3C
7E
C7
03
03
3F
7F
E3
C3
C3
C7
E7
7F
3B
ENDCHAR
STARTCHAR ae
ENCODING 230
SWIDTH 665 0
DWIDTH 18 0
BBX 16 14 1 0
BITMAP
3E3C
7F7E
E3C6
01C3
0183
0183
1FFF
7FFF
E180
C180
C182
C3C7
7E7E
3C3C
ENDCHAR
STARTCHAR ccedilla
ENCODING 231
SWIDTH 344 0
DWIDTH 10 0
BBX 9 21 1 -7
BITMAP
1F00
3F80
7100
6000
C000
C000
C000
C000
C000
C000
E000
7100
7F80
3E00
1800
1E00
3F00
0300
0300
3F00
1C00
ENDCHAR
STARTCHAR egrave
ENCODING 232
SWIDTH 439 0
DWIDTH 12 0
BBX 10 20 1 0
BITMAP
3000
1800
0C00
0C00
0200
0000
1E00
3F80
7180
60C0
C0C0
C0C0
FFC0
FFC0
C000
C000
6080
71C0
3F80
1F00
ENDCHAR
STARTCHAR eacute
ENCODING 233
SWIDTH 439 0
DWIDTH 12 0
BBX 10 20 1 0
BITMAP
0380
0700
0600
0C00
0000
0000
1E00
3F80
7180
60C0
C0C0
C0C0
FFC0
FFC0
C000
C000
6080
71C0
3F80
1F00
ENDCHAR
STARTCHAR ecircumflex
ENCODING 234
SWIDTH 439 0
DWIDTH 12 0
BBX 10 20 1 0
BITMAP
0E00
1B00
3300
7180
0040
0000
1E00
3F80
7180
60C0
C0C0
C0C0
FFC0
FFC0
C000
C000
6080
71C0
3F80
1F00
ENDCHAR
STARTCHAR edieresis
ENCODING 235
SWIDTH 439 0
DWIDTH 12 0
BBX 10 19 1 0
BITMAP
6180
6180
0000
0000
0000
1E00
3F80
7180
60C0
C0C0
C0C0
FFC0
FFC0
C000
C000
C100
6380
7F00
1E00
ENDCHAR
STARTCHAR igrave
ENCODING 236
SWIDTH 232 0
DWIDTH 7 0
BBX 4 20 0 0
BITMAP
C0
60
60
30
00
00
30
30
30
30
30
30
30
30
30
30
30
30
30
30
ENDCHAR
STARTCHAR iacute
ENCODING 237
SWIDTH 232 0
DWIDTH 7 0
BBX 5 20 2 0
BITMAP
38
30
60
C0
00
00
C0
C0
C0
C0
C0
C0
C0
C0
C0
C0
C0
C0
C0
C0
ENDCHAR
STARTCHAR icircumflex
ENCODING 238
SWIDTH 232 0
DWIDTH 7 0
BBX 8 20 -1 0
BITMAP
1C
3C
66
C3
00
00
18
18
18
18
18
18
18
18
18
18
18
18
18
18
ENDCHAR
STARTCHAR idieresis
ENCODING 239
SWIDTH 232 0
DWIDTH 5 0
BBX 6 19 0 0
BITMAP
CC
CC
00
00
00
30
30
30
30
30
30
30
30
30
30
30
30
30
30
ENDCHAR
STARTCHAR eth
ENCODING 240
SWIDTH 450 0
DWIDTH 12 0
BBX 10 22 1 0
BITMAP
2000
7100
3F80
3C00
EE00
8700
0300
0380
1F80
3F80
73C0
61C0
C0C0
C0C0
C0C0
C0C0
C0C0
C0C0
6180
7380
3F00
1E00
ENDCHAR
STARTCHAR ntilde
ENCODING 241
SWIDTH 483 0
DWIDTH 13 0
BBX 9 19 2 0
BITMAP
3900
7F00
6600
0000
0000
EE00
DF00
E380
E180
C180
C180
C180
C180
C180
C180
C180
C180
C180
C180
ENDCHAR
STARTCHAR ograve
ENCODING 242
SWIDTH 455 0
DWIDTH 12 0
BBX 10 20 1 0
BITMAP
7000
3800
1800
0C00
0000
0000
1E00
3F00
7380
6180
C0C0
C0C0
C0C0
C0C0
C0C0
C0C0
6180
7380
3F00
1E00
ENDCHAR
STARTCHAR oacute
ENCODING 243
SWIDTH 455 0
DWIDTH 12 0
BBX 10 20 1 0
BITMAP
0380
0600
0E00
0C00
1000
0000
1E00
3F00
7380
6180
C0C0
C0C0
C0C0
C0C0
C0C0
C0C0
6180
7380
3F00
1E00
ENDCHAR
STARTCHAR ocircumflex
ENCODING 244
SWIDTH 455 0
DWIDTH 12 0
BBX 10 20 1 0
BITMAP
1E00
1E00
3300
6180
0000
0000
1E00
3F00
7380
6180
C0C0
C0C0
C0C0
C0C0
C0C0
C0C0
6180
7380
3F00
1E00
ENDCHAR
STARTCHAR otilde
ENCODING 245
SWIDTH 455 0
DWIDTH 13 0
BBX 10 19 1 0
BITMAP
7880
FF80
C700
0000
0000
1E00
3F00
7380
6180
C0C0
C0C0
C0C0
C0C0
C0C0
C0C0
6180
7380
3F00
1E00
ENDCHAR
STARTCHAR odieresis
ENCODING 246
SWIDTH 455 0
DWIDTH 13 0
BBX 9 19 1 0
BITMAP
6300
6300
0000
0000
0000
1C00
7E00
6300
E380
C180
C180
C180
C180
C180
C180
E380
6300
7E00
1C00
ENDCHAR
STARTCHAR divide
ENCODING 247
SWIDTH 666 0
DWIDTH 19 0
BBX 15 13 2 2
BITMAP
0300
0780
0780
0300
0000
0000
FFFE
FFFE
0000
0300
0780
0780
0300
ENDCHAR
STARTCHAR oslash
ENCODING 248
SWIDTH 455 0
DWIDTH 12 0
BBX 10 16 1 -1
BITMAP
0080
1FC0
3F80
7380
6380
C3C0
C6C0
C4C0
C8C0
C8C0
D1C0
F180
7380
7F00
5E00
8000
ENDCHAR
STARTCHAR ugrave
ENCODING 249
SWIDTH 483 0
DWIDTH 13 0
BBX 9 20 2 0
BITMAP
6000
3000
1800
1800
0400
0000
C180
C180
C180
C180
C180
C180
C180
C180
C180
C180
C380
E380
7D80
3980
ENDCHAR
STARTCHAR uacute
ENCODING 250
SWIDTH 483 0
DWIDTH 13 0
BBX 9 20 2 0
BITMAP
0700
0600
0C00
1800
0000
0000
C180
C180
C180
C180
C180
C180
C180
C180
C180
C180
C380
E380
7D80
3980
ENDCHAR
STARTCHAR ucircumflex
ENCODING 251
SWIDTH 483 0
DWIDTH 13 0
BBX 9 20 2 0
BITMAP
1C00
3600
3600
6300
0000
0000
C180
C180
C180
C180
C180
C180
C180
C180
C180
C180
C380
E380
7D80
3980
ENDCHAR
STARTCHAR udieresis
ENCODING 252
SWIDTH 483 0
DWIDTH 13 0
BBX 9 19 2 0
BITMAP
6300
6300
0000
0000
0000
C180
C180
C180
C180
C180
C180
C180
C180
C180
C180
C380
E380
7F80
3D80
ENDCHAR
STARTCHAR yacute
ENCODING 253
SWIDTH 396 0
DWIDTH 11 0
BBX 11 27 0 -7
BITMAP
0180
0300
0600
0600
0800
0000
E0E0
60C0
70C0
71C0
31C0
3180
3180
3980
1B80
1B00
1B00
0F00
0E00
0E00
0E00
0E00
0C00
0C00
1C00
7800
7000
ENDCHAR
STARTCHAR thorn
ENCODING 254
SWIDTH 480 0
DWIDTH 13 0
BBX 10 27 2 -6
BITMAP
C000
C000
C000
C000
C000
C000
C000
DE00
FF00
F380
E180
C0C0
C0C0
C0C0
C0C0
C0C0
C0C0
E1C0
F380
FF00
DE00
C000
C000
C000
C000
C000
C000
ENDCHAR
STARTCHAR ydieresis
ENCODING 255
SWIDTH 396 0
DWIDTH 11 0
BBX 11 26 0 -7
BITMAP
3180
3180
0000
0000
0000
E060
6060
60E0
60E0
70C0
31C0
31C0
3180
1B80
1B80
1B80
1B00
0F00
0F00
0F00
0E00
0E00
0E00
1C00
7C00
7000
ENDCHAR
STARTCHAR Amacron
ENCODING 256
SWIDTH 487 0
DWIDTH 14 0
BBX 13 24 0 0
BITMAP
1FC0
1FC0
0000
0000
0780
0780
0780
0D80
0DC0
0CC0
0CC0
1CC0
18E0
1860
1860
3860
3070
3FF0
3FF0
7030
7038
6038
6038
E018
ENDCHAR
STARTCHAR amacron
ENCODING 257
SWIDTH 415 0
DWIDTH 12 0
BBX 9 19 1 0
BITMAP
7F00
7F00
0000
0000
0000
3E00
7F00
E380
0180
0180
1F80
7F80
6180
C180
C180
C380
E380
7F80
3D80
ENDCHAR
STARTCHAR Abreve
ENCODING 258
SWIDTH 487 0
DWIDTH 14 0
BBX 13 25 0 0
BITMAP
1860
18C0
0FC0
0780
0000
0780
0780
0780
0D80
0DC0
0CC0
0CC0
1CC0
18E0
1860
1860
3860
3070
3FF0
3FF0
7030
7038
6038
6038
E018
ENDCHAR
STARTCHAR abreve
ENCODING 259
SWIDTH 415 0
DWIDTH 12 0
BBX 9 20 1 0
BITMAP
6180
6300
3F00
1E00
0000
0000
3E00
FF00
4380
0180
0180
1F80
7F80
6180
C180
C180
C380
E380
7F80
3D80
ENDCHAR
STARTCHAR Aogonek
ENCODING 260
SWIDTH 487 0
DWIDTH 13 0
BBX 13 26 0 -6
BITMAP
0700
0F00
0F80
0D80
0D80
1C80
1CC0
1CC0
18C0
3840
3860
3860
3060
7FE0
7FF0
6070
6070
E030
E038
C038
0030
0060
00C0
00C8
00F8
0070
ENDCHAR
STARTCHAR aogonek
ENCODING 261
SWIDTH 415 0
DWIDTH 12 0
BBX 9 20 1 -6
BITMAP
3E00
7F00
E380
0180
0180
1F80
7F80
6180
C180
C180
C380
E380
7F80
3D80
0300
0600
0C00
0C80
0F80
0700
ENDCHAR
STARTCHAR Cacute
ENCODING 262
SWIDTH 486 0
DWIDTH 14 0
BBX 11 25 2 0
BITMAP
0180
0300
0300
0600
0000
0F80
3FE0
38E0
7040
6000
E000
C000
C000
C000
C000
C000
C000
C000
C000
E000
6000
7040
38E0
3FC0
0F80
ENDCHAR
STARTCHAR cacute
ENCODING 263
SWIDTH 344 0
DWIDTH 10 0
BBX 9 20 1 0
BITMAP
0380
0600
0600
0C00
0000
0000
3E00
7F00
6000
E000
C000
C000
C000
C000
C000
C000
E000
6200
7F00
3E00
ENDCHAR
STARTCHAR Ccircumflex
ENCODING 264
SWIDTH 486 0
DWIDTH 14 0
BBX 11 25 2 0
BITMAP
0700
0D80
0D80
18C0
2020
0F80
3FE0
38E0
7040
6000
E000
C000
C000
C000
C000
C000
C000
C000
C000
E000
6000
7040
38E0
3FC0
0F80
ENDCHAR
STARTCHAR ccircumflex
ENCODING 265
SWIDTH 344 0
DWIDTH 10 0
BBX 9 20 1 0
BITMAP
1C00
1E00
3300
6380
0000
0000
3E00
7F00
6000
E000
C000
C000
C000
C000
C000
C000
E000
6200
7F00
3E00
ENDCHAR
STARTCHAR Cdotaccent
ENCODING 266
SWIDTH 486 0
DWIDTH 14 0
BBX 11 26 1 0
BITMAP
0300
0300
0300
0300
0000
0000
0F80
3FE0
38E0
7040
6000
E000
C000
C000
C000
C000
C000
C000
C000
C000
E000
6000
7040
38E0
3FC0
0F80
ENDCHAR
STARTCHAR cdotaccent
ENCODING 267
SWIDTH 344 0
DWIDTH 9 0
BBX 8 20 1 0
BITMAP
0C
0C
0C
0C
00
00
3E
7F
60
E0
C0
C0
C0
C0
C0
C0
E0
62
7F
3E
ENDCHAR
STARTCHAR Ccaron
ENCODING 268
SWIDTH 486 0
DWIDTH 14 0
BBX 11 25 2 0
BITMAP
38C0
1980
0D80
0700
0000
0F80
3FE0
38E0
7040
6000
E000
C000
C000
C000
C000
C000
C000
C000
C000
E000
6000
7040
38E0
3FC0
0F80
ENDCHAR
STARTCHAR ccaron
ENCODING 269
SWIDTH 344 0
DWIDTH 10 0
BBX 9 20 1 0
BITMAP
6380
3300
1E00
1C00
0000
0000
3E00
7F00
6000
E000
C000
C000
C000
C000
C000
C000
E000
6200
7F00
3E00
ENDCHAR
STARTCHAR Dcaron
ENCODING 270
SWIDTH 553 0
DWIDTH 15 0
BBX 12 25 2 0
BITMAP
C380
2700
3600
1C00
0000
FE00
FF80
C1C0
C0E0
C060
C060
C030
C030
C030
C030
C030
C030
C030
C030
C060
C060
C0E0
C1C0
FF80
FE00
ENDCHAR
STARTCHAR dcaron
ENCODING 271
SWIDTH 480 0
DWIDTH 13 0
BBX 15 21 1 0
BITMAP
00C0
00CE
00CC
00CC
00CC
00D8
1CC0
3EC0
73C0
61C0
C0C0
C0C0
C0C0
C0C0
C0C0
C0C0
C0C0
61C0
73C0
3EC0
1EC0
ENDCHAR
STARTCHAR Dcroat
ENCODING 272
SWIDTH 551 0
DWIDTH 15 0
BBX 14 20 0 0
BITMAP
3F80
3FE0
3070
3038
3018
3018
300C
300C
300C
FF0C
FF0C
300C
300C
300C
3018
3018
3038
3070
3FE0
3F80
ENDCHAR
STARTCHAR dcroat
ENCODING 273
SWIDTH 480 0
DWIDTH 13 0
BBX 11 21 1 0
BITMAP
00C0
00C0
00C0
0FE0
0FE0
00C0
00C0
1CC0
7FC0
73C0
E1C0
C0C0
C0C0
C0C0
C0C0
C0C0
C0C0
61C0
63C0
3FC0
1EC0
ENDCHAR
STARTCHAR Emacron
ENCODING 274
SWIDTH 426 0
DWIDTH 12 0
BBX 8 24 2 0
BITMAP
7F
7F
00
00
FF
FF
C0
C0
C0
C0
C0
C0
C0
FF
FF
C0
C0
C0
C0
C0
C0
C0
FF
FF
ENDCHAR
STARTCHAR emacron
ENCODING 275
SWIDTH 439 0
DWIDTH 12 0
BBX 10 19 1 0
BITMAP
3F80
3F80
0000
0000
0000
1E00
3F80
7180
60C0
C0C0
C0C0
FFC0
FFC0
C000
C000
6080
71C0
3F80
1F00
ENDCHAR
STARTCHAR Ebreve
ENCODING 276
SWIDTH 426 0
DWIDTH 12 0
BBX 8 25 2 0
BITMAP
43
63
3E
1C
00
FF
FF
C0
C0
C0
C0
C0
C0
C0
FF
FF
C0
C0
C0
C0
C0
C0
C0
FF
FF
ENDCHAR
STARTCHAR ebreve
ENCODING 277
SWIDTH 439 0
DWIDTH 12 0
BBX 10 20 1 0
BITMAP
30C0
3180
1F80
0F00
0000
0000
1E00
3F80
7180
60C0
C0C0
C0C0
FFC0
FFC0
C000
C000
6080
71C0
3F80
1F00
ENDCHAR
STARTCHAR Edotaccent
ENCODING 278
SWIDTH 426 0
DWIDTH 12 0
BBX 8 26 2 0
BITMAP
18
18
18
18
00
00
FF
FF
C0
C0
C0
C0
C0
C0
C0
FF
FF
C0
C0
C0
C0
C0
C0
C0
FF
FF
ENDCHAR
STARTCHAR edotaccent
ENCODING 279
SWIDTH 439 0
DWIDTH 12 0
BBX 10 20 1 0
BITMAP
0C00
0C00
0C00
0C00
0000
0000
1E00
3F80
7180
60C0
C0C0
C0C0
FFC0
FFC0
C000
C000
C100
6380
7F00
1E00
ENDCHAR
STARTCHAR Eogonek
ENCODING 280
SWIDTH 426 0
DWIDTH 12 0
BBX 9 26 2 -6
BITMAP
FF00
FF00
C000
C000
C000
C000
C000
C000
C000
FF00
FF00
C000
C000
C000
C000
C000
C000
C000
FF80
FF80
0300
0600
0C00
0C80
0F80
0700
ENDCHAR
STARTCHAR eogonek
ENCODING 281
SWIDTH 439 0
DWIDTH 12 0
BBX 10 20 1 -6
BITMAP
1E00
3F80
7180
60C0
C0C0
C0C0
FFC0
FFC0
C000
C000
E000
60C0
7F80
3F00
0400
0C00
1800
1A00
1F00
0E00
ENDCHAR
STARTCHAR Ecaron
ENCODING 282
SWIDTH 426 0
DWIDTH 12 0
BBX 8 25 2 0
BITMAP
E3
66
3C
1C
00
FF
FF
C0
C0
C0
C0
C0
C0
C0
FF
FF
C0
C0
C0
C0
C0
C0
C0
FF
FF
ENDCHAR
STARTCHAR ecaron
ENCODING 283
SWIDTH 439 0
DWIDTH 12 0
BBX 10 20 1 0
BITMAP
7180
3300
1F00
0E00
0000
0000
1E00
3F80
7180
60C0
C0C0
C0C0
FFC0
FFC0
C000
C000
6080
71C0
3F80
1F00
ENDCHAR
STARTCHAR Gcircumflex
ENCODING 284
SWIDTH 541 0
DWIDTH 15 0
BBX 12 25 1 0
BITMAP
0380
0780
0CC0
1860
0000
0F80
3FE0
38E0
7040
6000
E000
C000
C000
C000
C1F0
C1F0
C030
C030
C030
6030
6030
7030
3830
1FF0
07C0
ENDCHAR
STARTCHAR gcircumflex
ENCODING 285
SWIDTH 480 0
DWIDTH 13 0
BBX 10 27 1 -7
BITMAP
0E00
1B00
3300
3180
4040
0000
3EC0
7FC0
73C0
E1C0
C0C0
C0C0
C0C0
C0C0
C0C0
C0C0
61C0
63C0
3FC0
1EC0
00C0
00C0
00C0
41C0
E180
7F00
3E00
ENDCHAR
STARTCHAR Gbreve
ENCODING 286
SWIDTH 541 0
DWIDTH 15 0
BBX 12 25 1 0
BITMAP
0860
0C60
0FC0
0380
0000
0F80
3FE0
38E0
7040
6000
E000
C000
C000
C000
C1F0
C1F0
C030
C030
C030
6030
6030
7030
3830
1FF0
07C0
ENDCHAR
STARTCHAR gbreve
ENCODING 287
SWIDTH 480 0
DWIDTH 13 0
BBX 10 27 1 -7
BITMAP
30C0
3180
1F80
0F00
0000
0000
3EC0
7FC0
73C0
E1C0
C0C0
C0C0
C0C0
C0C0
C0C0
C0C0
61C0
63C0
3FC0
1EC0
00C0
00C0
00C0
41C0
E180
7F00
3E00
ENDCHAR
STARTCHAR Gdotaccent
ENCODING 288
SWIDTH 541 0
DWIDTH 15 0
BBX 11 26 2 0
BITMAP
0600
0600
0600
0600
0000
0000
0F80
3FE0
38E0
7040
6000
E000
C000
C000
C000
C3E0
C3E0
C060
C060
C060
6060
6060
7060
3860
1FE0
0F80
ENDCHAR
STARTCHAR gdotaccent
ENCODING 289
SWIDTH 480 0
DWIDTH 13 0
BBX 10 27 1 -7
BITMAP
0600
0600
0600
0600
0000
0000
3EC0
7FC0
73C0
E1C0
C0C0
C0C0
C0C0
C0C0
C0C0
C0C0
61C0
63C0
3EC0
1CC0
00C0
00C0
00C0
41C0
6180
FF80
3E00
ENDCHAR
STARTCHAR Gcommaaccent
ENCODING 290
SWIDTH 541 0
DWIDTH 15 0
BBX 12 26 1 -6
BITMAP
0F80
3FE0
38E0
7040
6000
E000
C000
C000
C000
C1F0
C1F0
C030
C030
C030
6030
6030
7030
3830
1FF0
07C0
0000
0300
0300
0600
0600
0600
ENDCHAR
STARTCHAR gcommaaccent
ENCODING 291
SWIDTH 480 0
DWIDTH 13 0
BBX 10 28 1 -7
BITMAP
0200
0600
0600
0600
0C00
0000
0000
3EC0
7FC0
73C0
E1C0
C0C0
C0C0
C0C0
C0C0
C0C0
C0C0
61C0
63C0
3FC0
1EC0
00C0
00C0
00C0
41C0
E180
7F00
3E00
ENDCHAR
STARTCHAR Hcircumflex
ENCODING 292
SWIDTH 583 0
DWIDTH 16 0
BBX 12 25 2 0
BITMAP
0F00
0F80
1980
30C0
0020
C030
C030
C030
C030
C030
C030
C030
C030
C030
FFF0
FFF0
C030
C030
C030
C030
C030
C030
C030
C030
C030
ENDCHAR
STARTCHAR hcircumflex
ENCODING 293
SWIDTH 482 0
DWIDTH 13 0
BBX 9 26 2 0
BITMAP
1C00
3600
3600
6300
0000
C000
C000
C000
C000
C000
C000
C000
CE00
DF00
E380
E180
C180
C180
C180
C180
C180
C180
C180
C180
C180
C180
ENDCHAR
STARTCHAR Hbar
ENCODING 294
SWIDTH 583 0
DWIDTH 16 0
BBX 12 20 2 0
BITMAP
C030
C030
C030
C030
FFF0
FFF0
C030
C030
C030
FFF0
FFF0
C030
C030
C030
C030
C030
C030
C030
C030
C030
ENDCHAR
STARTCHAR hbar
ENCODING 295
SWIDTH 482 0
DWIDTH 13 0
BBX 10 21 1 0
BITMAP
6000
6000
6000
FC00
FC00
6000
6000
6700
6F80
71C0
70C0
60C0
60C0
60C0
60C0
60C0
60C0
60C0
60C0
60C0
60C0
ENDCHAR
STARTCHAR Itilde
ENCODING 296
SWIDTH 246 0
DWIDTH 6 0
BBX 8 25 -1 0
BITMAP
71
FF
CE
00
00
18
18
18
18
18
18
18
18
18
18
18
18
18
18
18
18
18
18
18
18
ENDCHAR
STARTCHAR itilde
ENCODING 297
SWIDTH 232 0
DWIDTH 6 0
BBX 8 19 -1 0
BITMAP
71
FF
CE
00
00
18
18
18
18
18
18
18
18
18
18
18
18
18
18
ENDCHAR
STARTCHAR Imacron
ENCODING 298
SWIDTH 246 0
DWIDTH 7 0
BBX 7 24 0 0
BITMAP
FE
FE
00
00
30
30
30
30
30
30
30
30
30
30
30
30
30
30
30
30
30
30
30
30
ENDCHAR
STARTCHAR imacron
ENCODING 299
SWIDTH 232 0
DWIDTH 7 0
BBX 7 19 0 0
BITMAP
FE
FE
00
00
00
30
30
30
30
30
30
30
30
30
30
30
30
30
30
ENDCHAR
STARTCHAR Iogonek
ENCODING 302
SWIDTH 246 0
DWIDTH 7 0
BBX 5 26 1 -6
BITMAP
30
30
30
30
30
30
30
30
30
30
30
30
30
30
30
30
30
30
30
30
20
60
C0
C8
F8
70
ENDCHAR
STARTCHAR iogonek
ENCODING 303
SWIDTH 232 0
DWIDTH 7 0
BBX 5 26 0 -6
BITMAP
30
30
30
30
00
00
30
30
30
30
30
30
30
30
30
30
30
30
30
30
20
60
C0
C8
F8
70
ENDCHAR
STARTCHAR Idotaccent
ENCODING 304
SWIDTH 246 0
DWIDTH 7 0
BBX 2 26 2 0
BITMAP
C0
C0
C0
C0
00
00
C0
C0
C0
C0
C0
C0
C0
C0
C0
C0
C0
C0
C0
C0
C0
C0
C0
C0
C0
C0
ENDCHAR
STARTCHAR dotlessi
ENCODING 305
SWIDTH 232 0
DWIDTH 7 0
BBX 2 14 2 0
BITMAP
C0
C0
C0
C0
C0
C0
C0
C0
C0
C0
C0
C0
C0
C0
ENDCHAR
STARTCHAR IJ
ENCODING 306
SWIDTH 634 0
DWIDTH 17 0
BBX 13 20 2 0
BITMAP
C018
C018
C018
C018
C018
C018
C018
C018
C018
C018
C018
C018
C018
C018
C018
C018
C618
CE38
C7F0
C3E0
ENDCHAR
STARTCHAR ij
ENCODING 307
SWIDTH 457 0
DWIDTH 13 0
BBX 9 27 2 -7
BITMAP
C180
C180
C180
C180
0000
0000
C180
C180
C180
C180
C180
C180
C180
C180
C180
C180
C180
C180
C180
C180
0180
0180
0180
0180
0380
0F00
0E00
ENDCHAR
STARTCHAR Jcircumflex
ENCODING 308
SWIDTH 395 0
DWIDTH 11 0
BBX 12 25 0 0
BITMAP
01C0
03C0
0660
0C30
0000
0180
0180
0180
0180
0180
0180
0180
0180
0180
0180
0180
0180
0180
0180
0180
0180
6180
E380
7F00
3E00
ENDCHAR
STARTCHAR jcircumflex
ENCODING 309
SWIDTH 233 0
DWIDTH 7 0
BBX 8 27 -1 -7
BITMAP
1C
3C
66
C3
00
00
18
18
18
18
18
18
18
18
18
18
18
18
18
18
18
18
18
18
38
F0
E0
ENDCHAR
STARTCHAR Kcommaaccent
ENCODING 310
SWIDTH 499 0
DWIDTH 14 0
BBX 11 26 2 -6
BITMAP
C1E0
C1C0
C380
C300
C700
CE00
CC00
DC00
F800
F800
F800
DC00
CC00
CE00
C700
C700
C380
C1C0
C1C0
C0E0
0000
0E00
0C00
0C00
0C00
1800
ENDCHAR
STARTCHAR kcommaaccent
ENCODING 311
SWIDTH 421 0
DWIDTH 12 0
BBX 9 27 2 -6
BITMAP
C000
C000
C000
C000
C000
C000
C000
C380
C700
CE00
CC00
DC00
F800
F000
F800
DC00
CC00
CE00
C700
C700
C380
0000
1800
1800
1800
3000
3000
ENDCHAR
STARTCHAR Lacute
ENCODING 313
SWIDTH 373 0
DWIDTH 10 0
BBX 8 25 2 0
BITMAP
38
30
60
60
80
C0
C0
C0
C0
C0
C0
C0
C0
C0
C0
C0
C0
C0
C0
C0
C0
C0
C0
FF
FF
ENDCHAR
STARTCHAR lacute
ENCODING 314
SWIDTH 232 0
DWIDTH 7 0
BBX 5 26 2 0
BITMAP
38
30
60
C0
00
C0
C0
C0
C0
C0
C0
C0
C0
C0
C0
C0
C0
C0
C0
C0
C0
C0
C0
C0
C0
C0
ENDCHAR
STARTCHAR Lcommaaccent
ENCODING 315
SWIDTH 373 0
DWIDTH 10 0
BBX 8 26 2 -6
BITMAP
C0
C0
C0
C0
C0
C0
C0
C0
C0
C0
C0
C0
C0
C0
C0
C0
C0
C0
FF
FF
00
18
18
18
30
30
ENDCHAR
STARTCHAR lcommaaccent
ENCODING 316
SWIDTH 232 0
DWIDTH 7 0
BBX 3 27 1 -6
BITMAP
60
60
60
60
60
60
60
60
60
60
60
60
60
60
60
60
60
60
60
60
60
00
60
C0
C0
C0
C0
ENDCHAR
STARTCHAR Lcaron
ENCODING 317
SWIDTH 373 0
DWIDTH 10 0
BBX 8 20 2 0
BITMAP
C7
C6
C6
C6
CC
C0
C0
C0
C0
C0
C0
C0
C0
C0
C0
C0
C0
C0
FF
FF
ENDCHAR
STARTCHAR lcaron
ENCODING 318
SWIDTH 232 0
DWIDTH 7 0
BBX 7 21 2 0
BITMAP
C0
C6
CC
CC
CC
CC
C0
C0
C0
C0
C0
C0
C0
C0
C0
C0
C0
C0
C0
C0
C0
ENDCHAR
STARTCHAR Ldot
ENCODING 319
SWIDTH 373 0
DWIDTH 10 0
BBX 8 20 2 0
BITMAP
C0
C0
C0
C0
C0
C0
C0
C0
C0
C6
C6
C6
C6
C0
C0
C0
C0
C0
FF
FF
ENDCHAR
STARTCHAR ldot
ENCODING 320
SWIDTH 320 0
DWIDTH 7 0
BBX 6 21 2 0
BITMAP
C0
C0
C0
C0
C0
C0
C0
C0
C0
C0
CC
CC
CC
CC
C0
C0
C0
C0
C0
C0
C0
ENDCHAR
STARTCHAR Lslash
ENCODING 321
SWIDTH 369 0
DWIDTH 10 0
BBX 9 20 1 0
BITMAP
6000
6000
6000
6000
6000
6000
6200
6600
6C00
7800
7000
6000
E000
E000
E000
6000
6000
6000
7F80
7F80
ENDCHAR
STARTCHAR lslash
ENCODING 322
SWIDTH 236 0
DWIDTH 7 0
BBX 4 21 1 0
BITMAP
60
60
60
60
60
60
60
70
70
70
E0
E0
E0
60
60
60
60
60
60
60
60
ENDCHAR
STARTCHAR Nacute
ENCODING 323
SWIDTH 573 0
DWIDTH 16 0
BBX 12 25 2 0
BITMAP
01C0
0380
0300
0600
0800
E030
F030
F030
F830
F830
FC30
DC30
DC30
CE30
CE30
C730
C730
C3B0
C3B0
C3B0
C1F0
C1F0
C0F0
C0F0
C070
ENDCHAR
STARTCHAR nacute
ENCODING 324
SWIDTH 483 0
DWIDTH 13 0
BBX 9 20 2 0
BITMAP
0700
0600
0C00
1800
0000
0000
CE00
DF00
E380
E180
C180
C180
C180
C180
C180
C180
C180
C180
C180
C180
ENDCHAR
STARTCHAR Ncommaaccent
ENCODING 325
SWIDTH 573 0
DWIDTH 16 0
BBX 12 26 2 -6
BITMAP
E030
F030
F030
F830
F830
FC30
DC30
DC30
CE30
CE30
C730
C730
C3B0
C3B0
C3B0
C1F0
C1F0
C0F0
C0F0
C070
0000
0600
0600
0C00
0C00
0C00
ENDCHAR
STARTCHAR ncommaaccent
ENCODING 326
SWIDTH 483 0
DWIDTH 13 0
BBX 9 20 2 -6
BITMAP
CE00
DF00
E380
E180
C180
C180
C180
C180
C180
C180
C180
C180
C180
C180
0000
1800
1800
1800
3000
3000
ENDCHAR
STARTCHAR Ncaron
ENCODING 327
SWIDTH 573 0
DWIDTH 16 0
BBX 12 25 2 0
BITMAP
30C0
1980
0F00
0F00
0000
E030
F030
F030
F830
F830
FC30
DC30
DC30
CE30
CE30
C730
C730
C3B0
C3B0
C3B0
C1F0
C1F0
C0F0
C0F0
C070
ENDCHAR
STARTCHAR ncaron
ENCODING 328
SWIDTH 483 0
DWIDTH 13 0
BBX 9 20 2 0
BITMAP
6300
3600
3600
1C00
0000
0000
CE00
DF00
E380
E180
C180
C180
C180
C180
C180
C180
C180
C180
C180
C180
ENDCHAR
STARTCHAR napostrophe
ENCODING 329
SWIDTH 513 0
DWIDTH 14 0
BBX 12 20 0 0
BITMAP
6000
6000
6000
C000
C000
01C0
1BE0
1A70
1C30
1830
1830
1830
1830
1830
1830
1830
1830
1830
1830
1830
ENDCHAR
STARTCHAR Omacron
ENCODING 332
SWIDTH 579 0
DWIDTH 15 0
BBX 13 24 1 0
BITMAP
0FE0
0FE0
0000
0000
0F80
1FC0
38E0
7070
6030
6030
C018
C018
C018
C018
C018
C018
C018
C018
6030
6030
7070
38E0
1FC0
0F80
ENDCHAR
STARTCHAR omacron
ENCODING 333
SWIDTH 455 0
DWIDTH 12 0
BBX 10 19 1 0
BITMAP
3F80
3F80
0000
0000
0000
1E00
3F00
7380
6180
C0C0
C0C0
C0C0
C0C0
C0C0
C0C0
6180
7380
3F00
1E00
ENDCHAR
STARTCHAR Obreve
ENCODING 334
SWIDTH 579 0
DWIDTH 15 0
BBX 13 25 1 0
BITMAP
1860
0CC0
0FC0
0780
0000
0F80
1FC0
38E0
7070
6030
6030
C018
C018
C018
C018
C018
C018
C018
C018
6030
6030
7070
38E0
1FC0
0F80
ENDCHAR
STARTCHAR obreve
ENCODING 335
SWIDTH 455 0
DWIDTH 12 0
BBX 10 20 1 0
BITMAP
2180
3180
3F00
1E00
0000
0000
1E00
3F00
7380
6180
C0C0
C0C0
C0C0
C0C0
C0C0
C0C0
6180
7380
3F00
1E00
ENDCHAR
STARTCHAR Ohungarumlaut
ENCODING 336
SWIDTH 579 0
DWIDTH 15 0
BBX 13 25 1 0
BITMAP
0330
0660
06C0
0CC0
0100
0F80
1FC0
38E0
7070
6030
6030
C018
C018
C018
C018
C018
C018
C018
C018
6030
6030
7070
38E0
1FC0
0F80
ENDCHAR
STARTCHAR ohungarumlaut
ENCODING 337
SWIDTH 455 0
DWIDTH 12 0
BBX 11 20 1 0
BITMAP
0EE0
1CC0
1980
3300
0000
0000
1E00
3F00
7380
6180
C0C0
C0C0
C0C0
C0C0
C0C0
C0C0
6180
7380
3F00
1E00
ENDCHAR
STARTCHAR OE
ENCODING 338
SWIDTH 684 0
DWIDTH 19 0
BBX 17 20 1 0
BITMAP
07FF80
1FFF80
3C6000
706000
606000
606000
C06000
C06000
C06000
C07F00
C07F00
C06000
C06000
C06000
606000
606000
706000
386000
1FFF80
07FF80
ENDCHAR
STARTCHAR oe
ENCODING 339
SWIDTH 711 0
DWIDTH 20 0
BBX 18 14 1 0
BITMAP
1E1E00
3F3F00
73F180
61E0C0
C0C0C0
C0C0C0
C0FFC0
C0FFC0
C0C000
C0C000
61C100
63E380
3FBF00
1E1E00
ENDCHAR
STARTCHAR Racute
ENCODING 340
SWIDTH 492 0
DWIDTH 13 0
BBX 10 25 2 0
BITMAP
0700
0E00
0C00
1800
0000
FE00
FF80
C180
C0C0
C0C0
C0C0
C0C0
C1C0
C180
FF80
FE00
C600
C700
C700
C300
C380
C180
C180
C1C0
C0C0
ENDCHAR
STARTCHAR racute
ENCODING 341
SWIDTH 285 0
DWIDTH 8 0
BBX 5 20 2 0
BITMAP
18
30
60
60
80
00
D8
D8
F0
E0
C0
C0
C0
C0
C0
C0
C0
C0
C0
C0
ENDCHAR
STARTCHAR Rcommaaccent
ENCODING 342
SWIDTH 492 0
DWIDTH 13 0
BBX 10 26 2 -6
BITMAP
FE00
FF80
C180
C0C0
C0C0
C0C0
C0C0
C1C0
C180
FF80
FE00
C600
C700
C700
C300
C380
C180
C180
C1C0
C0C0
0000
0C00
1800
1800
1800
1800
ENDCHAR
STARTCHAR rcommaaccent
ENCODING 343
SWIDTH 285 0
DWIDTH 8 0
BBX 6 20 1 -6
BITMAP
6C
6C
78
70
60
60
60
60
60
60
60
60
60
60
00
60
C0
C0
C0
C0
ENDCHAR
STARTCHAR Rcaron
ENCODING 344
SWIDTH 492 0
DWIDTH 13 0
BBX 10 25 2 0
BITMAP
C380
2700
3E00
1C00
0000
FE00
FF80
C180
C0C0
C0C0
C0C0
C0C0
C1C0
C180
FF80
FE00
C600
C700
C700
C300
C380
C180
C180
C1C0
C0C0
ENDCHAR
STARTCHAR rcaron
ENCODING 345
SWIDTH 285 0
DWIDTH 8 0
BBX 8 20 1 0
BITMAP
C7
66
3C
38
00
00
6C
6C
78
70
60
60
60
60
60
60
60
60
60
60
ENDCHAR
STARTCHAR Sacute
ENCODING 346
SWIDTH 440 0
DWIDTH 12 0
BBX 10 25 1 0
BITMAP
0380
0300
0600
0C00
0000
1F00
3FC0
6180
C000
C000
C000
C000
E000
7800
3E00
1F00
0780
01C0
00C0
00C0
00C0
40C0
E180
7F80
3E00
ENDCHAR
STARTCHAR sacute
ENCODING 347
SWIDTH 353 0
DWIDTH 10 0
BBX 8 20 1 0
BITMAP
07
0E
0C
18
00
00
3E
7F
E2
C0
C0
E0
7C
1E
07
03
03
C7
FE
3C
ENDCHAR
STARTCHAR Scircumflex
ENCODING 348
SWIDTH 440 0
DWIDTH 12 0
BBX 10 25 1 0
BITMAP
0E00
1B00
3900
7080
0040
1F00
3FC0
6180
C000
C000
C000
C000
E000
7800
3E00
1F00
0780
01C0
00C0
00C0
00C0
40C0
E180
7F80
3E00
ENDCHAR
STARTCHAR scircumflex
ENCODING 349
SWIDTH 353 0
DWIDTH 10 0
BBX 9 20 1 0
BITMAP
1C00
3600
6300
C380
0000
0000
3E00
7F00
E200
C000
C000
E000
7C00
1E00
0700
0300
0300
C700
FE00
3C00
ENDCHAR
STARTCHAR Scedilla
ENCODING 350
SWIDTH 440 0
DWIDTH 12 0
BBX 10 27 1 -7
BITMAP
0F80
3FC0
30C0
6000
6000
6000
6000
7000
3800
1E00
0F00
0380
01C0
00C0
00C0
00C0
40C0
E180
7F80
3E00
0800
0E00
1F00
0300
0300
3F00
1C00
ENDCHAR
STARTCHAR scedilla
ENCODING 351
SWIDTH 353 0
DWIDTH 10 0
BBX 8 21 1 -7
BITMAP
3C
7E
E7
C0
C0
E0
78
1E
07
03
03
C7
FE
7C
10
3C
3E
06
06
7E
38
ENDCHAR
STARTCHAR Scaron
ENCODING 352
SWIDTH 440 0
DWIDTH 12 0
BBX 10 25 1 0
BITMAP
6180
3300
1F00
0E00
0000
1F00
3FC0
6180
C000
C000
C000
C000
E000
7800
3E00
1F00
0780
01C0
00C0
00C0
00C0
40C0
E180
7F80
3E00
ENDCHAR
STARTCHAR scaron
ENCODING 353
SWIDTH 353 0
DWIDTH 10 0
BBX 8 20 1 0
BITMAP
C3
66
3C
1C
00
00
3E
7F
E2
C0
C0
E0
7C
1E
07
03
03
C7
FE
3C
ENDCHAR
STARTCHAR Tcommaaccent
ENCODING 354
SWIDTH 359 0
DWIDTH 10 0
BBX 10 26 0 -6
BITMAP
FFC0
FFC0
0C00
0C00
0C00
0C00
0C00
0C00
0C00
0C00
0C00
0C00
0C00
0C00
0C00
0C00
0C00
0C00
0C00
0C00
0000
0C00
1800
1800
1800
1800
ENDCHAR
STARTCHAR tcommaaccent
ENCODING 355
SWIDTH 264 0
DWIDTH 7 0
BBX 7 24 0 -6
BITMAP
30
30
30
30
FE
FE
30
30
30
30
30
30
30
30
30
30
3C
1E
00
0C
18
18
18
30
ENDCHAR
STARTCHAR Tcaron
ENCODING 356
SWIDTH 359 0
DWIDTH 10 0
BBX 10 25 0 0
BITMAP
6180
3300
1E00
0E00
0000
FFC0
FFC0
0C00
0C00
0C00
0C00
0C00
0C00
0C00
0C00
0C00
0C00
0C00
0C00
0C00
0C00
0C00
0C00
0C00
0C00
ENDCHAR
STARTCHAR tcaron
ENCODING 357
SWIDTH 264 0
DWIDTH 7 0
BBX 9 21 0 0
BITMAP
0180
0300
0300
3300
3200
3400
3000
FE00
FE00
3000
3000
3000
3000
3000
3000
3000
3000
3000
3000
3C00
1E00
ENDCHAR
STARTCHAR Tbar
ENCODING 358
SWIDTH 355 0
DWIDTH 10 0
BBX 10 20 0 0
BITMAP
FFC0
FFC0
0C00
0C00
0C00
3F00
3F00
0C00
0C00
0C00
0C00
0C00
0C00
0C00
0C00
0C00
0C00
0C00
0C00
0C00
ENDCHAR
STARTCHAR tbar
ENCODING 359
SWIDTH 264 0
DWIDTH 7 0
BBX 7 18 0 0
BITMAP
30
30
30
30
FE
FE
30
30
30
7C
7C
30
30
30
30
30
3C
1E
ENDCHAR
STARTCHAR Utilde
ENCODING 360
SWIDTH 557 0
DWIDTH 16 0
BBX 12 25 2 0
BITMAP
1C40
3FC0
3380
0000
0000
C030
C030
C030
C030
C030
C030
C030
C030
C030
C030
C030
C030
C030
C030
C030
C030
6060
70E0
3FC0
1F80
ENDCHAR
STARTCHAR utilde
ENCODING 361
SWIDTH 483 0
DWIDTH 13 0
BBX 9 19 2 0
BITMAP
3900
7F00
6600
0000
0000
C180
C180
C180
C180
C180
C180
C180
C180
C180
C180
C380
E380
7F80
3D80
ENDCHAR
STARTCHAR Umacron
ENCODING 362
SWIDTH 557 0
DWIDTH 15 0
BBX 11 24 2 0
BITMAP
3F80
3F80
0000
0000
C060
C060
C060
C060
C060
C060
C060
C060
C060
C060
C060
C060
C060
C060
C060
C060
60C0
71C0
3F80
1F00
ENDCHAR
STARTCHAR umacron
ENCODING 363
SWIDTH 483 0
DWIDTH 13 0
BBX 9 19 2 0
BITMAP
7F00
7F00
0000
0000
0000
C180
C180
C180
C180
C180
C180
C180
C180
C180
C180
C380
E380
7F80
3D80
ENDCHAR
STARTCHAR Ubreve
ENCODING 364
SWIDTH 557 0
DWIDTH 15 0
BBX 11 25 2 0
BITMAP
30C0
3180
1F80
0F00
0000
C060
C060
C060
C060
C060
C060
C060
C060
C060
C060
C060
C060
C060
C060
C060
C060
60C0
71C0
3F80
1F00
ENDCHAR
STARTCHAR ubreve
ENCODING 365
SWIDTH 483 0
DWIDTH 13 0
BBX 9 20 2 0
BITMAP
C180
6300
7F00
3E00
0000
0000
C180
C180
C180
C180
C180
C180
C180
C180
C180
C180
C380
E380
7D80
3980
ENDCHAR
STARTCHAR Uring
ENCODING 366
SWIDTH 557 0
DWIDTH 16 0
BBX 11 27 2 0
BITMAP
0E00
1F00
1100
1100
1100
1F00
0E00
C060
C060
C060
C060
C060
C060
C060
C060
C060
C060
C060
C060
C060
C060
C060
C060
60C0
71C0
3F80
1F00
ENDCHAR
STARTCHAR uring
ENCODING 367
SWIDTH 483 0
DWIDTH 13 0
BBX 9 22 2 0
BITMAP
1C00
3E00
2200
2200
2200
3E00
1C00
0000
C180
C180
C180
C180
C180
C180
C180
C180
C180
C180
C380
E380
7F80
3D80
ENDCHAR
STARTCHAR Uhungarumlaut
ENCODING 368
SWIDTH 557 0
DWIDTH 15 0
BBX 11 25 2 0
BITMAP
0660
0CC0
0D80
1900
0200
C060
C060
C060
C060
C060
C060
C060
C060
C060
C060
C060
C060
C060
C060
C060
C060
60C0
71C0
3F80
1F00
ENDCHAR
STARTCHAR uhungarumlaut
ENCODING 369
SWIDTH 483 0
DWIDTH 13 0
BBX 10 20 2 0
BITMAP
0DC0
1980
3300
3200
4400
0000
C180
C180
C180
C180
C180
C180
C180
C180
C180
C180
C380
E380
7D80
3980
ENDCHAR
STARTCHAR Uogonek
ENCODING 370
SWIDTH 557 0
DWIDTH 15 0
BBX 11 26 2 -6
BITMAP
C060
C060
C060
C060
C060
C060
C060
C060
C060
C060
C060
C060
C060
C060
C060
C060
60C0
71C0
3F80
1F00
0400
0800
1800
1A00
1F00
0E00
ENDCHAR
STARTCHAR uogonek
ENCODING 371
SWIDTH 483 0
DWIDTH 13 0
BBX 9 20 2 -6
BITMAP
C180
C180
C180
C180
C180
C180
C180
C180
C180
C180
C380
E380
7F80
3D80
0100
0200
0600
0680
0780
0380
ENDCHAR
STARTCHAR Wcircumflex
ENCODING 372
SWIDTH 744 0
DWIDTH 21 0
BBX 21 25 0 0
BITMAP
007000
00D800
00D800
018C00
020200
E07038
607030
607030
70F870
70D870
70D860
30D860
30D860
31DC60
398CE0
398CC0
198CC0
198CC0
198EC0
1F0EC0
1F07C0
0F0780
0F0780
0F0780
0F0780
ENDCHAR
STARTCHAR wcircumflex
ENCODING 373
SWIDTH 600 0
DWIDTH 17 0
BBX 15 20 1 0
BITMAP
0380
06C0
0EC0
0C60
1000
0000
C386
C386
C38E
E38E
E68C
66CC
66CC
64DC
64D8
3C58
3C78
3C78
3878
3870
ENDCHAR
STARTCHAR Ycircumflex
ENCODING 374
SWIDTH 437 0
DWIDTH 12 0
BBX 12 25 0 0
BITMAP
0700
0F00
1980
30C0
0000
E070
6060
70E0
30E0
30C0
39C0
1980
1980
0F00
0F00
0F00
0600
0600
0600
0600
0600
0600
0600
0600
0600
ENDCHAR
STARTCHAR ycircumflex
ENCODING 375
SWIDTH 396 0
DWIDTH 11 0
BBX 11 27 0 -7
BITMAP
0E00
0B00
1980
3180
0040
0000
E0E0
60C0
70C0
71C0
31C0
3180
3180
3980
1B80
1B00
1B00
0F00
0E00
0E00
0E00
0E00
0C00
0C00
1C00
7800
7000
ENDCHAR
STARTCHAR Ydieresis
ENCODING 376
SWIDTH 437 0
DWIDTH 12 0
BBX 12 24 0 0
BITMAP
1980
1980
0000
0000
E070
6060
70E0
30E0
30C0
39C0
1980
1980
0F00
0F00
0F00
0600
0600
0600
0600
0600
0600
0600
0600
0600
ENDCHAR
STARTCHAR Zacute
ENCODING 377
SWIDTH 411 0
DWIDTH 12 0
BBX 9 25 1 0
BITMAP
0700
0600
0C00
0C00
1000
FF80
FF80
0180
0380
0300
0700
0700
0E00
0E00
1C00
1C00
1800
3800
3000
7000
7000
E000
E000
FF80
FF80
ENDCHAR
STARTCHAR zacute
ENCODING 378
SWIDTH 347 0
DWIDTH 10 0
BBX 8 20 1 0
BITMAP
0E
0C
18
38
00
00
FF
FF
07
06
0E
1C
18
38
30
70
E0
E0
FF
FF
ENDCHAR
STARTCHAR Zdotaccent
ENCODING 379
SWIDTH 411 0
DWIDTH 12 0
BBX 9 26 1 0
BITMAP
0C00
0C00
0C00
0C00
0000
0000
FF80
FF80
0180
0380
0300
0700
0700
0E00
0E00
1C00
1C00
1800
3800
3000
7000
7000
E000
E000
FF80
FF80
ENDCHAR
STARTCHAR zdotaccent
ENCODING 380
SWIDTH 347 0
DWIDTH 10 0
BBX 8 20 1 0
BITMAP
18
18
18
18
00
00
FF
FF
07
06
0E
1C
18
38
30
70
E0
E0
FF
FF
ENDCHAR
STARTCHAR Zcaron
ENCODING 381
SWIDTH 411 0
DWIDTH 12 0
BBX 9 25 1 0
BITMAP
6180
3300
1E00
1C00
0000
FF80
FF80
0180
0380
0300
0700
0700
0E00
0E00
1C00
1C00
1800
3800
3000
7000
7000
E000
E000
FF80
FF80
ENDCHAR
STARTCHAR zcaron
ENCODING 382
SWIDTH 347 0
DWIDTH 10 0
BBX 8 20 1 0
BITMAP
C3
66
3C
1C
00
00
FF
FF
07
06
0E
1C
18
38
30
70
E0
E0
FF
FF
ENDCHAR
STARTCHAR florin
ENCODING 402
SWIDTH 482 0
DWIDTH 14 0
BBX 13 24 0 -4
BITMAP
00F0
01F8
0380
0380
0300
0300
0300
0700
3FE0
3FE0
0600
0600
0600
0E00
0E00
0E00
0C00
0C00
0C00
1C00
1C00
1800
7800
F000
ENDCHAR
STARTCHAR Scommaaccent
ENCODING 536
SWIDTH 440 0
DWIDTH 12 0
BBX 10 26 1 -6
BITMAP
1F00
3FC0
6180
C000
C000
C000
C000
E000
7800
3E00
1F00
0780
01C0
00C0
00C0
00C0
40C0
E180
7F80
3E00
0000
1C00
1800
1800
1800
3000
ENDCHAR
STARTCHAR scommaaccent
ENCODING 537
SWIDTH 353 0
DWIDTH 10 0
BBX 8 20 1 -6
BITMAP
3E
7F
E2
C0
C0
E0
7C
1E
07
03
03
C7
FE
3C
00
18
30
30
30
60
ENDCHAR
STARTCHAR uni021A
ENCODING 538
SWIDTH 359 0
DWIDTH 10 0
BBX 10 26 0 -6
BITMAP
FFC0
FFC0
0C00
0C00
0C00
0C00
0C00
0C00
0C00
0C00
0C00
0C00
0C00
0C00
0C00
0C00
0C00
0C00
0C00
0C00
0000
0C00
1800
1800
1800
1800
ENDCHAR
STARTCHAR uni021B
ENCODING 539
SWIDTH 264 0
DWIDTH 7 0
BBX 7 24 0 -6
BITMAP
30
30
30
30
FE
FE
30
30
30
30
30
30
30
30
30
30
3C
1E
00
18
18
18
30
30
ENDCHAR
STARTCHAR circumflex
ENCODING 710
SWIDTH 235 0
DWIDTH 6 0
BBX 8 4 -1 16
BITMAP
18
3C
66
C3
ENDCHAR
STARTCHAR caron
ENCODING 711
SWIDTH 235 0
DWIDTH 6 0
BBX 8 4 -1 16
BITMAP
C3
66
3C
18
ENDCHAR
STARTCHAR uni02C9
ENCODING 713
SWIDTH 235 0
DWIDTH 6 0
BBX 7 2 0 22
BITMAP
FE
FE
ENDCHAR
STARTCHAR breve
ENCODING 728
SWIDTH 235 0
DWIDTH 7 0
BBX 8 4 -1 16
BITMAP
C3
C3
7E
3C
ENDCHAR
STARTCHAR dotaccent
ENCODING 729
SWIDTH 235 0
DWIDTH 7 0
BBX 2 4 2 16
BITMAP
C0
C0
C0
C0
ENDCHAR
STARTCHAR ring
ENCODING 730
SWIDTH 235 0
DWIDTH 7 0
BBX 5 7 1 15
BITMAP
70
F8
88
88
88
F8
70
ENDCHAR
STARTCHAR ogonek
ENCODING 731
SWIDTH 235 0
DWIDTH 7 0
BBX 5 7 1 -6
BITMAP
30
60
40
C0
C8
F8
70
ENDCHAR
STARTCHAR tilde
ENCODING 732
SWIDTH 235 0
DWIDTH 6 0
BBX 8 3 -1 16
BITMAP
71
FF
CE
ENDCHAR
STARTCHAR hungarumlaut
ENCODING 733
SWIDTH 235 0
DWIDTH 6 0
BBX 9 4 -1 16
BITMAP
3B80
3300
6600
CC00
ENDCHAR
STARTCHAR uni034F
ENCODING 847
SWIDTH 0 0
DWIDTH 0 0
BBX 1 1 0 0
BITMAP
00
ENDCHAR
STARTCHAR uni0394
ENCODING 916
SWIDTH 678 0
DWIDTH 19 0
BBX 19 20 0 0
BITMAP
00E000
01E000
01F000
01F000
03B800
033800
031800
071C00
061C00
0E0C00
0E0E00
0C0600
1C0700
180700
380300
380380
300180
7001C0
7FFFC0
FFFFE0
ENDCHAR
STARTCHAR uni03A9
ENCODING 937
SWIDTH 752 0
DWIDTH 21 0
BBX 17 20 2 0
BITMAP
03E000
0FF800
3C1E00
300600
600300
600300
C00180
C00180
C00180
C00180
C00180
E00380
600300
700700
3C1E00
1E3C00
063000
063000
FE3F80
FE3F80
ENDCHAR
STARTCHAR uni03BC
ENCODING 956
SWIDTH 578 0
DWIDTH 15 0
BBX 11 19 2 -6
BITMAP
C060
C060
C060
C060
C060
C060
C060
C060
C060
C0E0
E1E0
FFE0
FE60
C000
C000
C000
C000
C000
C000
ENDCHAR
STARTCHAR pi
ENCODING 960
SWIDTH 578 0
DWIDTH 16 0
BBX 14 13 1 0
BITMAP
FFFC
FFFC
3030
3030
3030
3030
3030
3030
3030
3030
3030
303C
301C
ENDCHAR
STARTCHAR uni200B
ENCODING 8203
SWIDTH 0 0
DWIDTH 0 0
BBX 1 1 0 0
BITMAP
00
ENDCHAR
STARTCHAR uni200C
ENCODING 8204
SWIDTH 0 0
DWIDTH 0 0
BBX 1 1 0 0
BITMAP
00
ENDCHAR
STARTCHAR uni200D
ENCODING 8205
SWIDTH 0 0
DWIDTH 0 0
BBX 1 1 0 0
BITMAP
00
ENDCHAR
STARTCHAR endash
ENCODING 8211
SWIDTH 360 0
DWIDTH 10 0
BBX 8 2 1 6
BITMAP
FF
FF
ENDCHAR
STARTCHAR emdash
ENCODING 8212
SWIDTH 460 0
DWIDTH 13 0
BBX 11 2 1 6
BITMAP
FFE0
FFE0
ENDCHAR
STARTCHAR quoteleft
ENCODING 8216
SWIDTH 198 0
DWIDTH 5 0
BBX 3 7 1 13
BITMAP
60
60
60
40
C0
C0
C0
ENDCHAR
STARTCHAR quoteright
ENCODING 8217
SWIDTH 198 0
DWIDTH 5 0
BBX 3 7 1 13
BITMAP
60
60
60
40
C0
C0
C0
ENDCHAR
STARTCHAR quotesinglbase
ENCODING 8218
SWIDTH 198 0
DWIDTH 5 0
BBX 3 7 1 -4
BITMAP
60
60
60
40
C0
C0
C0
ENDCHAR
STARTCHAR quotedblleft
ENCODING 8220
SWIDTH 335 0
DWIDTH 9 0
BBX 7 7 1 13
BITMAP
66
66
66
6C
6C
CC
CC
ENDCHAR
STARTCHAR quotedblright
ENCODING 8221
SWIDTH 333 0
DWIDTH 9 0
BBX 7 7 1 13
BITMAP
66
66
6C
6C
CC
CC
CC
ENDCHAR
STARTCHAR quotedblbase
ENCODING 8222
SWIDTH 333 0
DWIDTH 9 0
BBX 7 7 1 -4
BITMAP
66
66
6C
6C
CC
CC
CC
ENDCHAR
STARTCHAR dagger
ENCODING 8224
SWIDTH 379 0
DWIDTH 11 0
BBX 10 24 0 -4
BITMAP
0C00
0C00
0C00
0C00
0C00
0C00
FFC0
FFC0
0C00
0C00
0C00
0C00
0C00
0C00
0C00
0C00
0C00
0C00
0C00
0C00
0C00
0C00
0C00
0C00
ENDCHAR
STARTCHAR daggerdbl
ENCODING 8225
SWIDTH 379 0
DWIDTH 11 0
BBX 10 23 0 -3
BITMAP
0C00
0C00
0C00
0C00
0C00
0C00
FFC0
FFC0
0C00
0C00
0C00
0C00
0C00
0C00
0C00
0C00
FFC0
FFC0
0C00
0C00
0C00
0C00
0C00
ENDCHAR
STARTCHAR bullet
ENCODING 8226
SWIDTH 500 0
DWIDTH 14 0
BBX 10 10 2 5
BITMAP
1E00
7F80
7F80
FFC0
FFC0
FFC0
FFC0
7F80
7F80
1E00
ENDCHAR
STARTCHAR ellipsis
ENCODING 8230
SWIDTH 900 0
DWIDTH 25 0
BBX 19 4 3 0
BITMAP
404040
E0E0E0
E0E0E0
E0E0E0
ENDCHAR
STARTCHAR perthousand
ENCODING 8240
SWIDTH 900 0
DWIDTH 26 0
BBX 24 21 1 0
BITMAP
002000
383000
7C3000
EE2000
C66000
C66000
C64000
C6C000
EE8000
7D8000
398000
01383C
037C7E
03EEE7
06C6C3
06C6C3
04C6C3
0CC6C3
0CEEE7
087C7E
18383C
ENDCHAR
STARTCHAR guilsinglleft
ENCODING 8249
SWIDTH 224 0
DWIDTH 6 0
BBX 4 12 1 1
BITMAP
30
30
20
60
40
C0
C0
40
60
20
30
30
ENDCHAR
STARTCHAR guilsinglright
ENCODING 8250
SWIDTH 224 0
DWIDTH 6 0
BBX 4 12 1 1
BITMAP
C0
C0
40
60
20
30
30
20
60
40
C0
C0
ENDCHAR
STARTCHAR fraction
ENCODING 8260
SWIDTH 100 0
DWIDTH 3 0
BBX 9 20 -3 0
BITMAP
0180
0100
0300
0300
0200
0600
0600
0400
0C00
0C00
1800
1800
1000
3000
3000
2000
6000
6000
4000
C000
ENDCHAR
STARTCHAR Euro
ENCODING 8364
SWIDTH 482 0
DWIDTH 14 0
BBX 12 20 1 0
BITMAP
03F0
07F0
0E00
1C00
1800
3800
3800
7FC0
FFC0
3000
3000
7F80
FF80
3000
3800
1800
1C00
0E10
0FF0
03E0
ENDCHAR
STARTCHAR afii61289
ENCODING 8467
SWIDTH 500 0
DWIDTH 15 0
BBX 11 20 1 0
BITMAP
0780
0FC0
1CE0
1860
1860
1860
18C0
18C0
1980
1F00
1E00
1C00
3800
7800
D800
1800
1800
1C40
1FC0
0F80
ENDCHAR
STARTCHAR trademark
ENCODING 8482
SWIDTH 760 0
DWIDTH 21 0
BBX 18 12 1 8
BITMAP
FCE1C0
FCE1C0
30E1C0
30F3C0
30D3C0
30D2C0
30D2C0
30DEC0
30CEC0
30CCC0
30CCC0
30CCC0
ENDCHAR
STARTCHAR Omega
ENCODING 8486
SWIDTH 752 0
DWIDTH 21 0
BBX 17 20 2 0
BITMAP
03E000
0FF800
3C1E00
300600
600300
600300
C00180
C00180
C00180
C00180
C00180
E00380
600300
700700
3C1E00
1E3C00
063000
063000
FE3F80
FE3F80
ENDCHAR
STARTCHAR estimated
ENCODING 8494
SWIDTH 800 0
DWIDTH 23 0
BBX 19 20 2 0
BITMAP
03F800
0FFE00
1C0700
300180
7001C0
7001C0
F001C0
F001E0
FFFFE0
FFFFE0
F00000
F00000
F00000
700000
7000C0
700180
380300
1C0E00
0FFC00
03F000
ENDCHAR
STARTCHAR partialdiff
ENCODING 8706
SWIDTH 523 0
DWIDTH 14 0
BBX 12 20 1 0
BITMAP
1F00
7F80
61C0
00E0
0060
0060
0030
0030
1F30
3FF0
70F0
E070
C030
C030
C030
C060
E060
70C0
3F80
1F00
ENDCHAR
STARTCHAR Delta
ENCODING 8710
SWIDTH 678 0
DWIDTH 19 0
BBX 19 20 0 0
BITMAP
00E000
01E000
01F000
01F000
03B800
033800
031800
071C00
061C00
0E0C00
0E0E00
0C0600
1C0700
180700
380300
380380
300180
7001C0
7FFFC0
FFFFE0
ENDCHAR
STARTCHAR product
ENCODING 8719
SWIDTH 726 0
DWIDTH 20 0
BBX 16 28 2 -6
BITMAP
FFFF
FFFF
C003
C003
C003
C003
C003
C003
C003
C003
C003
C003
C003
C003
C003
C003
C003
C003
C003
C003
C003
C003
C003
C003
C003
C003
C003
C003
ENDCHAR
STARTCHAR summation
ENCODING 8721
SWIDTH 626 0
DWIDTH 18 0
BBX 16 28 1 -6
BITMAP
FFFE
FFFE
F000
7000
3800
1C00
1C00
0E00
0700
0780
0380
01C0
01E0
00E0
00F0
01E0
01C0
0380
0700
0F00
0E00
1C00
3800
3800
7000
E000
FFFF
FFFF
ENDCHAR
STARTCHAR minus
ENCODING 8722
SWIDTH 666 0
DWIDTH 19 0
BBX 15 2 2 7
BITMAP
FFFE
FFFE
ENDCHAR
STARTCHAR uni2215
ENCODING 8725
SWIDTH 100 0
DWIDTH 3 0
BBX 9 20 -3 0
BITMAP
0180
0100
0300
0300
0200
0600
0600
0400
0C00
0C00
1800
1800
1000
3000
3000
2000
6000
6000
4000
C000
ENDCHAR
STARTCHAR uni2219
ENCODING 8729
SWIDTH 228 0
DWIDTH 6 0
BBX 3 4 2 5
BITMAP
40
E0
E0
E0
ENDCHAR
STARTCHAR radical
ENCODING 8730
SWIDTH 515 0
DWIDTH 14 0
BBX 15 28 0 -6
BITMAP
000E
000C
000C
001C
001C
001C
0018
0018
0038
0038
0038
0030
0030
0070
0070
0060
2060
F060
F0E0
38E0
18C0
1CC0
0CC0
0FC0
07C0
0780
0380
0380
ENDCHAR
STARTCHAR infinity
ENCODING 8734
SWIDTH 778 0
DWIDTH 22 0
BBX 19 9 2 3
BITMAP
3C0780
7F1FC0
E3B8E0
C1F060
C0E060
C1F060
E3B8E0
7F1FC0
3E0F80
ENDCHAR
STARTCHAR integral
ENCODING 8747
SWIDTH 574 0
DWIDTH 16 0
BBX 10 28 2 -6
BITMAP
0780
07C0
0DC0
0C80
0C00
0C00
0C00
0C00
0C00
0C00
0C00
0C00
0C00
0C00
0C00
0C00
0C00
0C00
0C00
0C00
0C00
0C00
0C00
0C00
4C00
EC00
7800
7800
ENDCHAR
STARTCHAR approxequal
ENCODING 8776
SWIDTH 666 0
DWIDTH 19 0
BBX 15 9 2 3
BITMAP
3C06
7F8E
E3FC
C078
0000
3C06
7F8E
E3FC
C078
ENDCHAR
STARTCHAR notequal
ENCODING 8800
SWIDTH 666 0
DWIDTH 18 0
BBX 14 16 1 -1
BITMAP
0020
0070
0060
00E0
FFFC
FFFC
0380
0300
0700
0700
FFFC
FFFC
1C00
1800
3800
1000
ENDCHAR
STARTCHAR lessequal
ENCODING 8804
SWIDTH 666 0
DWIDTH 18 0
BBX 14 16 2 0
BITMAP
000C
007C
01F8
0FE0
7F00
F800
F000
FE00
1FC0
03F8
007C
000C
0000
0000
FFFC
FFFC
ENDCHAR
STARTCHAR greaterequal
ENCODING 8805
SWIDTH 666 0
DWIDTH 18 0
BBX 14 16 2 0
BITMAP
C000
F800
7E00
1FC0
03F8
007C
003C
01FC
0FE0
7F00
F800
C000
0000
0000
FFFC
FFFC
ENDCHAR
STARTCHAR lozenge
ENCODING 9674
SWIDTH 593 0
DWIDTH 16 0
BBX 12 22 2 -1
BITMAP
0600
0F00
0F00
1F80
1980
39C0
30C0
30C0
6060
6060
E070
E070
6060
6060
30C0
30C0
39C0
1980
1F80
0F00
0F00
0600
ENDCHAR
STARTCHAR dotlessj
ENCODING 63166
SWIDTH 233 0
DWIDTH 7 0
BBX 5 21 -1 -7
BITMAP
18
18
18
18
18
18
18
18
18
18
18
18
18
18
18
18
18
18
38
F0
E0
ENDCHAR
STARTCHAR commaaccent
ENCODING 63171
SWIDTH 235 0
DWIDTH 7 0
BBX 3 5 1 -6
BITMAP
60
60
40
C0
C0
ENDCHAR
STARTCHAR uniF8FF
ENCODING 63743
SWIDTH 876 0
DWIDTH 25 0
BBX 18 22 3 -1
BITMAP
000400
001800
003800
003800
007000
044400
1FBF80
7FFFC0
7FFF80
FFFF00
FFFF00
FFFE00
FFFE00
FFFF00
FFFF00
FFFF80
7FFFC0
7FFFC0
3FFFC0
1FFF80
1FFF00
071E00
ENDCHAR
STARTCHAR fi
ENCODING 64257
SWIDTH 482 0
DWIDTH 13 0
BBX 11 22 0 0
BITMAP
0E00
1E00
3860
3060
3060
3060
3000
3000
FC60
FC60
3060
3060
3060
3060
3060
3060
3060
3060
3060
3060
3060
3060
ENDCHAR
STARTCHAR fl
ENCODING 64258
SWIDTH 482 0
DWIDTH 13 0
BBX 11 22 0 0
BITMAP
0E00
1E60
3860
3060
3060
3060
3060
3060
FC60
FC60
3060
3060
3060
3060
3060
3060
3060
3060
3060
3060
3060
3060
ENDCHAR
STARTCHAR .notdef
ENCODING -1
SWIDTH 512 0
DWIDTH 14 0
BBX 14 20 0 0
BITMAP
FFFC
8004
8004
8784
8CC4
9864
9864
8064
80C4
8184
8304
8304
8304
8004
8004
8304
8304
8004
8004
FFFC
ENDCHAR
STARTCHAR thorn.sc
ENCODING -1
SWIDTH 395 0
DWIDTH 11 0
BBX 8 16 2 0
BITMAP
C0
C0
C0
FC
FE
C7
C3
C3
C3
C7
FE
FC
C0
C0
C0
C0
ENDCHAR
STARTCHAR cent.sc
ENCODING -1
SWIDTH 436 0
DWIDTH 12 0
BBX 9 18 2 -2
BITMAP
0400
0400
1F00
3F80
7500
6400
C400
C400
C400
C400
C400
C400
6400
7500
3F80
1F00
0400
0400
ENDCHAR
STARTCHAR ordfeminine.sc
ENCODING -1
SWIDTH 304 0
DWIDTH 9 0
BBX 7 10 1 10
BITMAP
38
38
28
2C
6C
6C
7C
7C
C6
C6
ENDCHAR
STARTCHAR florin.sc
ENCODING -1
SWIDTH 436 0
DWIDTH 12 0
BBX 11 19 0 -3
BITMAP
03C0
07E0
0700
0600
0600
0E00
3F80
3F80
0C00
0C00
0C00
1C00
1C00
1C00
1800
1800
3800
7800
F000
ENDCHAR
STARTCHAR questiondown.sc
ENCODING -1
SWIDTH 335 0
DWIDTH 9 0
BBX 8 16 1 0
BITMAP
30
38
38
10
00
18
18
38
30
60
C0
C0
C7
C6
7E
7C
ENDCHAR
STARTCHAR ampersand.sc
ENCODING -1
SWIDTH 441 0
DWIDTH 12 0
BBX 11 16 1 0
BITMAP
1C00
3E00
6300
6300
6300
6700
3E00
3CE0
7CC0
EDC0
C780
C780
C380
E780
7FC0
3CE0
ENDCHAR
STARTCHAR percent.sc
ENCODING -1
SWIDTH 584 0
DWIDTH 17 0
BBX 15 17 1 -1
BITMAP
3060
7860
CCC0
CCC0
CC80
CD80
CD80
7B00
3338
037C
06C6
06C6
0CC6
0CC6
0C7C
1838
0800
ENDCHAR
STARTCHAR dollar.sc
ENCODING -1
SWIDTH 436 0
DWIDTH 12 0
BBX 9 20 1 -2
BITMAP
0C00
0C00
1F00
3F80
7D00
6C00
6C00
6C00
7C00
3E00
1F00
0F80
0D80
0D80
0D80
6F80
FF00
3E00
0C00
0C00
ENDCHAR
STARTCHAR exclam.sc
ENCODING -1
SWIDTH 258 0
DWIDTH 7 0
BBX 2 16 2 0
BITMAP
C0
C0
C0
C0
C0
C0
C0
C0
C0
C0
C0
00
C0
C0
C0
C0
ENDCHAR
STARTCHAR zero.sc
ENCODING -1
SWIDTH 436 0
DWIDTH 11 0
BBX 9 16 1 0
BITMAP
1C00
3E00
6300
6300
C180
C180
C180
C180
C180
C180
C180
C180
6300
6300
3E00
1C00
ENDCHAR
STARTCHAR one.sc
ENCODING -1
SWIDTH 436 0
DWIDTH 12 0
BBX 6 16 2 0
BITMAP
0C
1C
7C
FC
4C
0C
0C
0C
0C
0C
0C
0C
0C
0C
0C
0C
ENDCHAR
STARTCHAR two.sc
ENCODING -1
SWIDTH 436 0
DWIDTH 12 0
BBX 8 16 2 0
BITMAP
3C
7E
E7
C3
03
03
07
06
0E
1C
38
30
70
E0
FF
FF
ENDCHAR
STARTCHAR three.sc
ENCODING -1
SWIDTH 436 0
DWIDTH 12 0
BBX 9 16 1 0
BITMAP
1E00
3F00
7380
2180
0180
0180
0300
0E00
0F00
0380
0180
0180
6180
E380
7F00
3E00
ENDCHAR
STARTCHAR four.sc
ENCODING -1
SWIDTH 436 0
DWIDTH 12 0
BBX 10 15 1 0
BITMAP
0700
0F00
0F00
1B00
1B00
3300
3300
6300
6300
FFC0
FFC0
0300
0300
0300
0300
ENDCHAR
STARTCHAR five.sc
ENCODING -1
SWIDTH 436 0
DWIDTH 12 0
BBX 9 16 1 0
BITMAP
3F80
3F80
3000
3000
3000
3000
7E00
7F00
4380
0180
0180
0180
6180
E380
7F00
3E00
ENDCHAR
STARTCHAR six.sc
ENCODING -1
SWIDTH 436 0
DWIDTH 11 0
BBX 9 16 1 0
BITMAP
0E00
0C00
1C00
1800
3800
3000
7E00
7F00
E380
C180
C180
C180
C180
E300
7F00
3E00
ENDCHAR
STARTCHAR seven.sc
ENCODING -1
SWIDTH 436 0
DWIDTH 12 0
BBX 9 15 1 0
BITMAP
FF80
FF80
0380
0300
0700
0700
0600
0E00
0C00
1C00
1C00
1800
3800
3800
7000
ENDCHAR
STARTCHAR eight.sc
ENCODING -1
SWIDTH 436 0
DWIDTH 12 0
BBX 8 16 2 0
BITMAP
3C
7E
E7
C3
C3
C3
E7
7E
7E
E7
C3
C3
C3
E7
7E
3C
ENDCHAR
STARTCHAR nine.sc
ENCODING -1
SWIDTH 436 0
DWIDTH 11 0
BBX 9 16 1 0
BITMAP
3E00
7F00
6300
C180
C180
C180
C180
E380
7F00
3F00
0600
0E00
0C00
1C00
1800
3800
ENDCHAR
STARTCHAR zero.onum
ENCODING -1
SWIDTH 500 0
DWIDTH 13 0
BBX 11 16 1 0
BITMAP
1F00
3F80
71C0
60C0
E0E0
C060
C060
C060
C060
C060
C060
E0E0
60C0
71C0
3F80
1F00
ENDCHAR
STARTCHAR one.onum
ENCODING -1
SWIDTH 370 0
DWIDTH 10 0
BBX 6 16 1 0
BITMAP
0C
1C
7C
FC
4C
0C
0C
0C
0C
0C
0C
0C
0C
0C
0C
0C
ENDCHAR
STARTCHAR two.onum
ENCODING -1
SWIDTH 450 0
DWIDTH 13 0
BBX 9 16 2 0
BITMAP
3E00
7F00
E380
C180
0180
0180
0180
0300
0700
0600
0C00
3800
7000
E000
FF80
FF80
ENDCHAR
STARTCHAR three.onum
ENCODING -1
SWIDTH 430 0
DWIDTH 12 0
BBX 9 19 2 -4
BITMAP
FF00
FF00
0300
0600
1C00
3000
6000
FC00
FE00
0700
0380
0180
0180
0180
0180
0300
0700
FE00
F800
ENDCHAR
STARTCHAR four.onum
ENCODING -1
SWIDTH 480 0
DWIDTH 13 0
BBX 11 21 1 -5
BITMAP
0380
0300
0700
0600
0E00
0C00
1C00
1980
3980
3180
7180
6180
E180
E180
FFE0
FFE0
0180
0180
0180
0180
0180
ENDCHAR
STARTCHAR five.onum
ENCODING -1
SWIDTH 430 0
DWIDTH 11 0
BBX 9 19 1 -4
BITMAP
7F80
7F80
6000
6000
6000
6000
6000
7E00
7F00
8700
0380
0180
0180
0180
0180
0380
0700
7E00
FC00
ENDCHAR
STARTCHAR six.onum
ENCODING -1
SWIDTH 490 0
DWIDTH 13 0
BBX 11 20 1 0
BITMAP
0100
0380
0700
0E00
1C00
1800
3800
3F00
7F80
71C0
E0E0
C060
C060
C060
C060
C060
E0C0
71C0
3F80
1F00
ENDCHAR
STARTCHAR seven.onum
ENCODING -1
SWIDTH 430 0
DWIDTH 12 0
BBX 10 20 1 -5
BITMAP
FFC0
FFC0
01C0
0180
0180
0380
0300
0700
0700
0600
0E00
0C00
0C00
1C00
1800
3800
3800
3000
7000
3000
ENDCHAR
STARTCHAR eight.onum
ENCODING -1
SWIDTH 482 0
DWIDTH 14 0
BBX 10 20 2 0
BITMAP
1E00
7F80
6180
C0C0
C0C0
C0C0
C0C0
C1C0
6180
3F00
3F00
6180
C0C0
C0C0
C0C0
C0C0
C0C0
6180
7F80
1E00
ENDCHAR
STARTCHAR nine.onum
ENCODING -1
SWIDTH 490 0
DWIDTH 13 0
BBX 11 21 1 -5
BITMAP
1F00
3F80
71C0
60C0
C060
C060
C060
C060
C060
E0E0
71C0
7FC0
1FC0
0180
0380
0700
0E00
1C00
3C00
3800
1000
ENDCHAR
STARTCHAR Euro.sc
ENCODING -1
SWIDTH 436 0
DWIDTH 12 0
BBX 9 16 1 0
BITMAP
0F80
1F80
3800
3000
7000
FF00
FF00
6000
6000
FE00
FE00
6000
7000
3880
1F80
0F80
ENDCHAR
STARTCHAR sterling.sc
ENCODING -1
SWIDTH 436 0
DWIDTH 12 0
BBX 9 16 2 0
BITMAP
0F00
1F80
3900
3000
3000
3000
3000
FE00
FE00
3000
3000
3000
3000
3000
FF00
FF00
ENDCHAR
STARTCHAR yen.sc
ENCODING -1
SWIDTH 436 0
DWIDTH 12 0
BBX 10 16 1 0
BITMAP
E1C0
6180
6180
3380
3300
1F00
1E00
7F80
7F80
0C00
0C00
7F80
7F80
0C00
0C00
0C00
ENDCHAR
STARTCHAR perthousand.sc
ENCODING -1
SWIDTH 832 0
DWIDTH 24 0
BBX 22 17 1 -1
BITMAP
306000
786000
CCC000
CCC000
CD8000
CD8000
CD8000
7B0000
337870
0278F8
06CD8C
06CD8C
0CCD8C
0CCD8C
0878F8
187870
080000
ENDCHAR
STARTCHAR question.sc
ENCODING -1
SWIDTH 335 0
DWIDTH 10 0
BBX 8 16 1 0
BITMAP
3C
7E
67
E3
03
03
06
0C
1C
18
18
00
08
1C
1C
1C
ENDCHAR
STARTCHAR exclamdown.sc
ENCODING -1
SWIDTH 258 0
DWIDTH 7 0
BBX 2 16 2 0
BITMAP
C0
C0
C0
C0
00
C0
C0
C0
C0
C0
C0
C0
C0
C0
C0
C0
ENDCHAR
STARTCHAR a.sc
ENCODING -1
SWIDTH 399 0
DWIDTH 11 0
BBX 11 15 0 0
BITMAP
0E00
0F00
1B00
1B00
1B00
1B80
3980
3180
3180
31C0
7FC0
7FC0
60C0
60E0
E0E0
ENDCHAR
STARTCHAR b.sc
ENCODING -1
SWIDTH 435 0
DWIDTH 11 0
BBX 8 16 2 0
BITMAP
FC
FE
C7
C3
C3
C3
C7
FE
FE
C7
C3
C3
C3
C7
FE
FC
ENDCHAR
STARTCHAR c.sc
ENCODING -1
SWIDTH 414 0
DWIDTH 12 0
BBX 9 16 2 0
BITMAP
1F00
3F80
7180
6100
E000
C000
C000
C000
C000
C000
C000
E000
6100
7180
3F80
1E00
ENDCHAR
STARTCHAR d.sc
ENCODING -1
SWIDTH 473 0
DWIDTH 13 0
BBX 10 15 2 0
BITMAP
FC00
FF00
C380
C180
C1C0
C0C0
C0C0
C0C0
C0C0
C0C0
C1C0
C180
C380
FF00
FC00
ENDCHAR
STARTCHAR e.sc
ENCODING -1
SWIDTH 376 0
DWIDTH 11 0
BBX 7 16 2 0
BITMAP
FE
FE
C0
C0
C0
C0
C0
FC
FC
C0
C0
C0
C0
C0
FE
FE
ENDCHAR
STARTCHAR f.sc
ENCODING -1
SWIDTH 365 0
DWIDTH 10 0
BBX 7 15 2 0
BITMAP
FE
FE
C0
C0
C0
C0
FC
FC
C0
C0
C0
C0
C0
C0
C0
ENDCHAR
STARTCHAR g.sc
ENCODING -1
SWIDTH 464 0
DWIDTH 13 0
BBX 10 16 1 0
BITMAP
0F00
3FC0
7180
6100
E000
C000
C000
C3C0
C3C0
C0C0
C0C0
E0C0
60C0
70C0
3FC0
0F80
ENDCHAR
STARTCHAR h.sc
ENCODING -1
SWIDTH 502 0
DWIDTH 14 0
BBX 10 15 2 0
BITMAP
C0C0
C0C0
C0C0
C0C0
C0C0
C0C0
FFC0
FFC0
C0C0
C0C0
C0C0
C0C0
C0C0
C0C0
C0C0
ENDCHAR
STARTCHAR i.sc
ENCODING -1
SWIDTH 237 0
DWIDTH 7 0
BBX 2 16 2 0
BITMAP
C0
C0
C0
C0
C0
C0
C0
C0
C0
C0
C0
C0
C0
C0
C0
C0
ENDCHAR
STARTCHAR j.sc
ENCODING -1
SWIDTH 330 0
DWIDTH 9 0
BBX 7 16 0 0
BITMAP
06
06
06
06
06
06
06
06
06
06
06
06
46
C6
FC
78
ENDCHAR
STARTCHAR k.sc
ENCODING -1
SWIDTH 415 0
DWIDTH 12 0
BBX 9 16 2 0
BITMAP
C380
C700
C600
CE00
CC00
DC00
F800
F000
F800
D800
DC00
CC00
CE00
C700
C700
C380
ENDCHAR
STARTCHAR l.sc
ENCODING -1
SWIDTH 327 0
DWIDTH 9 0
BBX 6 15 2 0
BITMAP
C0
C0
C0
C0
C0
C0
C0
C0
C0
C0
C0
C0
C0
FC
FC
ENDCHAR
STARTCHAR m.sc
ENCODING -1
SWIDTH 624 0
DWIDTH 17 0
BBX 13 16 2 0
BITMAP
F078
F078
F078
F0F8
F8F8
F8F8
D8D8
D8D8
DDD8
CD98
CD98
CD98
CF98
C718
C718
C718
ENDCHAR
STARTCHAR n.sc
ENCODING -1
SWIDTH 497 0
DWIDTH 14 0
BBX 10 16 2 0
BITMAP
E0C0
F0C0
F0C0
F0C0
F8C0
F8C0
DCC0
DCC0
CCC0
CEC0
C6C0
C7C0
C7C0
C3C0
C3C0
C1C0
ENDCHAR
STARTCHAR o.sc
ENCODING -1
SWIDTH 488 0
DWIDTH 13 0
BBX 11 16 1 0
BITMAP
1F00
3F80
71C0
60C0
E0E0
C060
C060
C060
C060
C060
C060
E0E0
60C0
71C0
3F80
1F00
ENDCHAR
STARTCHAR p.sc
ENCODING -1
SWIDTH 407 0
DWIDTH 11 0
BBX 8 16 2 0
BITMAP
FC
FE
C7
C3
C3
C3
C3
C7
FE
FC
C0
C0
C0
C0
C0
C0
ENDCHAR
STARTCHAR q.sc
ENCODING -1
SWIDTH 488 0
DWIDTH 13 0
BBX 12 16 1 0
BITMAP
1F00
3F80
71C0
60C0
E0E0
C060
C060
C060
C060
C060
C060
E0E0
60C0
71C0
3FF0
0FF0
ENDCHAR
STARTCHAR r.sc
ENCODING -1
SWIDTH 426 0
DWIDTH 11 0
BBX 9 16 2 0
BITMAP
FC00
FE00
C700
C300
C300
C300
C700
FE00
FC00
CC00
CE00
CE00
C600
C700
C700
C380
ENDCHAR
STARTCHAR s.sc
ENCODING -1
SWIDTH 367 0
DWIDTH 10 0
BBX 8 16 1 0
BITMAP
3E
7F
E2
C0
C0
C0
E0
78
1E
07
03
03
83
C7
FE
3C
ENDCHAR
STARTCHAR t.sc
ENCODING -1
SWIDTH 299 0
DWIDTH 8 0
BBX 8 16 0 0
BITMAP
FF
FF
18
18
18
18
18
18
18
18
18
18
18
18
18
18
ENDCHAR
STARTCHAR u.sc
ENCODING -1
SWIDTH 487 0
DWIDTH 13 0
BBX 9 16 2 0
BITMAP
C180
C180
C180
C180
C180
C180
C180
C180
C180
C180
C180
C180
C180
E380
7F00
3E00
ENDCHAR
STARTCHAR v.sc
ENCODING -1
SWIDTH 391 0
DWIDTH 11 0
BBX 11 16 0 0
BITMAP
E0E0
E0E0
60C0
60C0
71C0
71C0
3180
3180
3980
3B80
1B00
1B00
1B00
1F00
0E00
0E00
ENDCHAR
STARTCHAR w.sc
ENCODING -1
SWIDTH 634 0
DWIDTH 18 0
BBX 17 16 0 0
BITMAP
E0C180
61C180
61E380
71E380
71E300
71E300
336300
333300
333700
3B3600
3B3600
1E3600
1E3E00
1E1E00
1E1C00
1E1C00
ENDCHAR
STARTCHAR x.sc
ENCODING -1
SWIDTH 395 0
DWIDTH 11 0
BBX 11 16 0 0
BITMAP
E0E0
71C0
31C0
3980
1B80
1B00
0F00
0E00
0E00
1F00
1B00
3B80
3180
71C0
60C0
E0E0
ENDCHAR
STARTCHAR y.sc
ENCODING -1
SWIDTH 373 0
DWIDTH 10 0
BBX 10 16 0 0
BITMAP
E1C0
E1C0
6180
7380
3300
3300
1E00
1E00
1E00
0C00
0C00
0C00
0C00
0C00
0C00
0C00
ENDCHAR
STARTCHAR z.sc
ENCODING -1
SWIDTH 360 0
DWIDTH 10 0
BBX 8 16 1 0
BITMAP
FF
FF
07
06
0E
0C
1C
18
38
38
70
70
E0
E0
FF
FF
ENDCHAR
STARTCHAR aacute.sc
ENCODING -1
SWIDTH 399 0
DWIDTH 11 0
BBX 11 21 0 0
BITMAP
0180
0300
0600
0600
0800
0000
0E00
0F00
1B00
1B00
1B00
1B80
3980
3180
3180
31C0
7FC0
7FC0
60C0
60E0
E0E0
ENDCHAR
STARTCHAR acircumflex.sc
ENCODING -1
SWIDTH 399 0
DWIDTH 11 0
BBX 11 21 0 0
BITMAP
0E00
1B00
1980
3180
0040
0000
0E00
0F00
1B00
1B00
1B00
1B80
3980
3180
3180
31C0
7FC0
7FC0
60C0
60E0
E0E0
ENDCHAR
STARTCHAR adieresis.sc
ENCODING -1
SWIDTH 399 0
DWIDTH 10 0
BBX 11 20 0 0
BITMAP
3300
3300
0000
0000
0000
0E00
0F00
1F00
1F00
1300
1380
3380
3380
3380
21C0
7FC0
7FC0
60C0
60E0
E0E0
ENDCHAR
STARTCHAR aring.sc
ENCODING -1
SWIDTH 399 0
DWIDTH 11 0
BBX 11 23 0 0
BITMAP
0E00
1F00
1100
1100
1100
1F00
0E00
0000
0E00
0E00
1B00
1B00
1B00
1B00
3180
3180
3180
3180
7FC0
7FC0
60C0
60C0
E0E0
ENDCHAR
STARTCHAR amacron.sc
ENCODING -1
SWIDTH 399 0
DWIDTH 11 0
BBX 11 20 0 0
BITMAP
3F80
3F80
0000
0000
0000
0E00
0F00
1B00
1B00
1B00
1B80
3980
3180
3180
31C0
7FC0
7FC0
60C0
60E0
E0E0
ENDCHAR
STARTCHAR ae.sc
ENCODING -1
SWIDTH 529 0
DWIDTH 15 0
BBX 14 15 0 0
BITMAP
07F8
07F8
0780
0D80
0D80
1D80
19F8
19F8
3180
3F80
3F80
6180
6180
E1FC
C1FC
ENDCHAR
STARTCHAR agrave.sc
ENCODING -1
SWIDTH 399 0
DWIDTH 11 0
BBX 11 21 0 0
BITMAP
3800
1800
0C00
0600
0000
0000
0E00
0F00
1B00
1B00
1B00
1B80
3980
3180
3180
31C0
7FC0
7FC0
60C0
60E0
E0E0
ENDCHAR
STARTCHAR atilde.sc
ENCODING -1
SWIDTH 399 0
DWIDTH 11 0
BBX 11 21 0 0
BITMAP
1880
3C80
3380
3300
0000
0000
0E00
0F00
1B00
1B00
1B00
1B80
3180
3180
3180
31C0
7FC0
7FC0
60C0
60E0
E0E0
ENDCHAR
STARTCHAR aogonek.sc
ENCODING -1
SWIDTH 399 0
DWIDTH 11 0
BBX 10 21 1 -6
BITMAP
1E00
1E00
1600
1600
3700
3700
3300
6300
6300
6380
7F80
FF80
E180
C1C0
C0C0
0180
0300
0600
0640
07C0
0380
ENDCHAR
STARTCHAR abreve.sc
ENCODING -1
SWIDTH 399 0
DWIDTH 11 0
BBX 11 21 0 0
BITMAP
3080
3180
1F00
0E00
0000
0000
0E00
0F00
1B00
1B00
1B00
1B80
3980
3180
3180
31C0
7FC0
7FC0
60C0
60E0
E0E0
ENDCHAR
STARTCHAR cacute.sc
ENCODING -1
SWIDTH 414 0
DWIDTH 12 0
BBX 9 21 2 0
BITMAP
0380
0700
0600
0C00
0000
1F00
3F80
7180
6100
E000
C000
C000
C000
C000
C000
C000
E000
6100
7180
3F80
1E00
ENDCHAR
STARTCHAR ccaron.sc
ENCODING -1
SWIDTH 414 0
DWIDTH 12 0
BBX 9 21 2 0
BITMAP
7180
3B00
1B00
0E00
0000
1F00
3F80
7180
6100
E000
C000
C000
C000
C000
C000
C000
E000
6100
7180
3F80
1E00
ENDCHAR
STARTCHAR cdotaccent.sc
ENCODING -1
SWIDTH 414 0
DWIDTH 12 0
BBX 9 21 1 0
BITMAP
0600
0600
0600
0600
0000
1F00
3F80
7180
6100
E000
C000
C000
C000
C000
C000
C000
E000
6100
7180
3F80
1E00
ENDCHAR
STARTCHAR ccedilla.sc
ENCODING -1
SWIDTH 414 0
DWIDTH 12 0
BBX 11 23 1 -7
BITMAP
0F80
3FC0
30E0
6080
6000
C000
C000
C000
C000
C000
C000
E000
6080
7DC0
3FC0
1F00
0400
0700
0F80
0180
0180
3F80
1E00
ENDCHAR
STARTCHAR ccircumflex.sc
ENCODING -1
SWIDTH 414 0
DWIDTH 12 0
BBX 10 21 2 0
BITMAP
0E00
1B00
1B00
3180
4040
1F00
3F80
7180
6100
E000
C000
C000
C000
C000
C000
C000
E000
6100
7180
3F80
1E00
ENDCHAR
STARTCHAR dcaron.sc
ENCODING -1
SWIDTH 473 0
DWIDTH 13 0
BBX 10 21 2 0
BITMAP
C380
6600
3E00
1C00
0000
0000
FC00
FF00
C380
C180
C1C0
C0C0
C0C0
C0C0
C0C0
C0C0
C1C0
C180
C380
FF00
FC00
ENDCHAR
STARTCHAR dcroat.sc
ENCODING -1
SWIDTH 473 0
DWIDTH 13 0
BBX 11 15 1 0
BITMAP
7E00
7F80
61C0
60C0
60E0
6060
FC60
FC60
6060
6060
60E0
60C0
61C0
7F80
7E00
ENDCHAR
STARTCHAR egrave.sc
ENCODING -1
SWIDTH 376 0
DWIDTH 11 0
BBX 7 21 2 0
BITMAP
E0
60
30
30
08
FE
FE
C0
C0
C0
C0
C0
FC
FC
C0
C0
C0
C0
C0
FE
FE
ENDCHAR
STARTCHAR ecircumflex.sc
ENCODING -1
SWIDTH 376 0
DWIDTH 11 0
BBX 8 21 2 0
BITMAP
38
3C
66
C6
01
FE
FE
C0
C0
C0
C0
C0
FC
FC
C0
C0
C0
C0
C0
FE
FE
ENDCHAR
STARTCHAR ecaron.sc
ENCODING -1
SWIDTH 376 0
DWIDTH 11 0
BBX 8 21 2 0
BITMAP
C7
66
6C
38
00
FE
FE
C0
C0
C0
C0
C0
FC
FC
C0
C0
C0
C0
C0
FE
FE
ENDCHAR
STARTCHAR edieresis.sc
ENCODING -1
SWIDTH 376 0
DWIDTH 10 0
BBX 7 20 2 0
BITMAP
C6
C6
00
00
FE
FE
C0
C0
C0
C0
C0
FC
FC
C0
C0
C0
C0
C0
FE
FE
ENDCHAR
STARTCHAR ebreve.sc
ENCODING -1
SWIDTH 376 0
DWIDTH 11 0
BBX 7 21 2 0
BITMAP
C2
C6
7C
38
00
FE
FE
C0
C0
C0
C0
C0
FC
FC
C0
C0
C0
C0
C0
FE
FE
ENDCHAR
STARTCHAR eogonek.sc
ENCODING -1
SWIDTH 376 0
DWIDTH 11 0
BBX 8 21 2 -6
BITMAP
FE
FE
C0
C0
C0
C0
FC
FC
C0
C0
C0
C0
C0
FF
FF
06
0C
18
19
1F
0E
ENDCHAR
STARTCHAR emacron.sc
ENCODING -1
SWIDTH 376 0
DWIDTH 11 0
BBX 7 20 2 0
BITMAP
FE
FE
00
00
FE
FE
C0
C0
C0
C0
C0
FC
FC
C0
C0
C0
C0
C0
FE
FE
ENDCHAR
STARTCHAR eacute.sc
ENCODING -1
SWIDTH 376 0
DWIDTH 11 0
BBX 7 21 2 0
BITMAP
06
0C
1C
18
00
FE
FE
C0
C0
C0
C0
C0
FC
FC
C0
C0
C0
C0
C0
FE
FE
ENDCHAR
STARTCHAR edotaccent.sc
ENCODING -1
SWIDTH 376 0
DWIDTH 11 0
BBX 7 21 2 0
BITMAP
30
30
30
30
00
FE
FE
C0
C0
C0
C0
C0
FC
FC
C0
C0
C0
C0
C0
FE
FE
ENDCHAR
STARTCHAR gdotaccent.sc
ENCODING -1
SWIDTH 464 0
DWIDTH 13 0
BBX 9 21 2 0
BITMAP
0C00
0C00
0C00
0C00
0000
1F00
3F80
7180
6100
E000
C000
C000
C780
C780
C180
C180
C180
6180
7180
3F80
1F00
ENDCHAR
STARTCHAR gbreve.sc
ENCODING -1
SWIDTH 464 0
DWIDTH 13 0
BBX 10 21 1 0
BITMAP
30C0
1980
1F80
0F00
0000
0F00
3FC0
7180
6100
E000
C000
C000
C3C0
C3C0
C0C0
C0C0
E0C0
60C0
70C0
3FC0
0F80
ENDCHAR
STARTCHAR gcommaaccent.sc
ENCODING -1
SWIDTH 464 0
DWIDTH 13 0
BBX 10 22 1 -6
BITMAP
0F00
3FC0
7180
6100
E000
C000
C000
C3C0
C3C0
C0C0
C0C0
E0C0
60C0
70C0
3FC0
0F80
0000
0600
0E00
0C00
0C00
0C00
ENDCHAR
STARTCHAR gcircumflex.sc
ENCODING -1
SWIDTH 464 0
DWIDTH 13 0
BBX 10 21 1 0
BITMAP
0E00
1F00
1980
30C0
4000
0F00
3FC0
7180
6100
E000
C000
C000
C3C0
C3C0
C0C0
C0C0
E0C0
60C0
70C0
3FC0
0F80
ENDCHAR
STARTCHAR hbar.sc
ENCODING -1
SWIDTH 502 0
DWIDTH 14 0
BBX 10 16 2 0
BITMAP
C0C0
C0C0
C0C0
FFC0
FFC0
C0C0
C0C0
FFC0
FFC0
C0C0
C0C0
C0C0
C0C0
C0C0
C0C0
C0C0
ENDCHAR
STARTCHAR hcircumflex.sc
ENCODING -1
SWIDTH 502 0
DWIDTH 14 0
BBX 10 21 2 0
BITMAP
1E00
1E00
3300
6180
0000
0000
C0C0
C0C0
C0C0
C0C0
C0C0
C0C0
FFC0
FFC0
C0C0
C0C0
C0C0
C0C0
C0C0
C0C0
C0C0
ENDCHAR
STARTCHAR iogonek.sc
ENCODING -1
SWIDTH 237 0
DWIDTH 7 0
BBX 5 22 1 -6
BITMAP
30
30
30
30
30
30
30
30
30
30
30
30
30
30
30
30
30
60
C0
C8
F8
70
ENDCHAR
STARTCHAR iacute.sc
ENCODING -1
SWIDTH 237 0
DWIDTH 7 0
BBX 5 21 2 0
BITMAP
38
30
60
C0
00
C0
C0
C0
C0
C0
C0
C0
C0
C0
C0
C0
C0
C0
C0
C0
C0
ENDCHAR
STARTCHAR itilde.sc
ENCODING -1
SWIDTH 237 0
DWIDTH 6 0
BBX 8 21 -1 0
BITMAP
71
F9
CF
C6
00
18
18
18
18
18
18
18
18
18
18
18
18
18
18
18
18
ENDCHAR
STARTCHAR idotaccent.sc
ENCODING -1
SWIDTH 237 0
DWIDTH 7 0
BBX 2 21 2 0
BITMAP
C0
C0
C0
C0
00
C0
C0
C0
C0
C0
C0
C0
C0
C0
C0
C0
C0
C0
C0
C0
C0
ENDCHAR
STARTCHAR icircumflex.sc
ENCODING -1
SWIDTH 237 0
DWIDTH 7 0
BBX 8 21 -1 0
BITMAP
1C
3C
66
C3
00
18
18
18
18
18
18
18
18
18
18
18
18
18
18
18
18
ENDCHAR
STARTCHAR idieresis.sc
ENCODING -1
SWIDTH 237 0
DWIDTH 5 0
BBX 6 20 0 0
BITMAP
CC
CC
00
00
30
30
30
30
30
30
30
30
30
30
30
30
30
30
30
30
ENDCHAR
STARTCHAR imacron.sc
ENCODING -1
SWIDTH 237 0
DWIDTH 7 0
BBX 7 20 0 0
BITMAP
FE
FE
00
00
30
30
30
30
30
30
30
30
30
30
30
30
30
30
30
30
ENDCHAR
STARTCHAR igrave.sc
ENCODING -1
SWIDTH 237 0
DWIDTH 7 0
BBX 5 21 -1 0
BITMAP
E0
60
30
18
00
18
18
18
18
18
18
18
18
18
18
18
18
18
18
18
18
ENDCHAR
STARTCHAR jcircumflex.sc
ENCODING -1
SWIDTH 330 0
DWIDTH 9 0
BBX 10 21 0 0
BITMAP
0600
0F00
1980
30C0
0000
0600
0600
0600
0600
0600
0600
0600
0600
0600
0600
0600
0600
4600
C600
FC00
7800
ENDCHAR
STARTCHAR kcommaaccent.sc
ENCODING -1
SWIDTH 415 0
DWIDTH 12 0
BBX 9 22 2 -6
BITMAP
C380
C700
C600
CE00
CC00
DC00
F800
F000
F800
D800
DC00
CC00
CE00
C700
C700
C380
0000
1800
1800
1800
3000
3000
ENDCHAR
STARTCHAR lslash.sc
ENCODING -1
SWIDTH 327 0
DWIDTH 9 0
BBX 7 16 1 0
BITMAP
60
60
64
64
6C
78
70
60
E0
E0
60
60
60
60
7E
7E
ENDCHAR
STARTCHAR lacute.sc
ENCODING -1
SWIDTH 327 0
DWIDTH 9 0
BBX 6 21 2 0
BITMAP
38
30
60
C0
00
00
C0
C0
C0
C0
C0
C0
C0
C0
C0
C0
C0
C0
C0
FC
FC
ENDCHAR
STARTCHAR lcaron.sc
ENCODING -1
SWIDTH 337 0
DWIDTH 9 0
BBX 7 15 2 0
BITMAP
C6
C6
C6
CC
CC
C0
C0
C0
C0
C0
C0
C0
C0
FC
FC
ENDCHAR
STARTCHAR lcommaaccent.sc
ENCODING -1
SWIDTH 327 0
DWIDTH 9 0
BBX 6 21 2 -6
BITMAP
C0
C0
C0
C0
C0
C0
C0
C0
C0
C0
C0
C0
C0
FC
FC
00
18
30
30
30
60
ENDCHAR
STARTCHAR ldot.sc
ENCODING -1
SWIDTH 327 0
DWIDTH 7 0
BBX 6 15 2 0
BITMAP
C0
C0
C0
C0
C0
C0
CC
CC
CC
CC
C0
C0
C0
FC
FC
ENDCHAR
STARTCHAR nacute.sc
ENCODING -1
SWIDTH 497 0
DWIDTH 14 0
BBX 10 21 2 0
BITMAP
0380
0300
0600
0C00
0000
E0C0
F0C0
F0C0
F0C0
F8C0
F8C0
DCC0
DCC0
CCC0
CEC0
C6C0
C7C0
C7C0
C3C0
C3C0
C1C0
ENDCHAR
STARTCHAR ncommaaccent.sc
ENCODING -1
SWIDTH 497 0
DWIDTH 14 0
BBX 10 22 2 -6
BITMAP
E0C0
F0C0
F0C0
F0C0
F8C0
F8C0
DCC0
DCC0
CCC0
CEC0
C6C0
C7C0
C7C0
C3C0
C3C0
C1C0
0000
0C00
0C00
0C00
1800
1800
ENDCHAR
STARTCHAR ncaron.sc
ENCODING -1
SWIDTH 497 0
DWIDTH 14 0
BBX 10 21 2 0
BITMAP
6180
3300
1E00
1E00
0000
E0C0
F0C0
F0C0
F0C0
F8C0
F8C0
DCC0
DCC0
CCC0
CEC0
C6C0
C7C0
C7C0
C3C0
C3C0
C1C0
ENDCHAR
STARTCHAR ntilde.sc
ENCODING -1
SWIDTH 497 0
DWIDTH 14 0
BBX 10 21 2 0
BITMAP
7080
7C80
CF80
C700
0000
E0C0
F0C0
F0C0
F0C0
F8C0
D8C0
DCC0
DCC0
CCC0
CEC0
C6C0
C7C0
C7C0
C3C0
C3C0
C1C0
ENDCHAR
STARTCHAR ograve.sc
ENCODING -1
SWIDTH 488 0
DWIDTH 13 0
BBX 11 21 1 0
BITMAP
3800
1800
0C00
0E00
0000
1F00
3F80
71C0
60C0
E0E0
C060
C060
C060
C060
C060
C060
E0E0
60C0
71C0
3F80
1F00
ENDCHAR
STARTCHAR oacute.sc
ENCODING -1
SWIDTH 488 0
DWIDTH 13 0
BBX 11 21 1 0
BITMAP
01C0
0300
0700
0600
0800
1F00
3F80
71C0
60C0
E0E0
C060
C060
C060
C060
C060
C060
E0E0
60C0
71C0
3F80
1F00
ENDCHAR
STARTCHAR ocircumflex.sc
ENCODING -1
SWIDTH 488 0
DWIDTH 13 0
BBX 11 21 1 0
BITMAP
0E00
1B00
3980
3180
4040
1F00
3F80
71C0
60C0
E0E0
C060
C060
C060
C060
C060
C060
E0E0
60C0
71C0
3F80
1F00
ENDCHAR
STARTCHAR omacron.sc
ENCODING -1
SWIDTH 488 0
DWIDTH 13 0
BBX 11 20 1 0
BITMAP
3F80
3F80
0000
0000
1F00
3F80
71C0
60C0
E0E0
C060
C060
C060
C060
C060
C060
E0E0
60C0
71C0
3F80
1F00
ENDCHAR
STARTCHAR obreve.sc
ENCODING -1
SWIDTH 488 0
DWIDTH 13 0
BBX 11 21 1 0
BITMAP
30C0
3180
1F80
0F00
0000
1F00
3F80
71C0
60C0
E0E0
C060
C060
C060
C060
C060
C060
E0E0
60C0
71C0
3F80
1F00
ENDCHAR
STARTCHAR oslash.sc
ENCODING -1
SWIDTH 488 0
DWIDTH 13 0
BBX 11 17 1 -1
BITMAP
0F60
3FC0
71C0
61C0
E1E0
C260
C260
C460
C460
C860
C860
F0E0
70C0
71C0
7F80
5E00
8000
ENDCHAR
STARTCHAR odieresis.sc
ENCODING -1
SWIDTH 488 0
DWIDTH 13 0
BBX 10 20 2 0
BITMAP
3300
3300
0000
0000
1E00
3F00
7380
6180
C0C0
C0C0
C0C0
C0C0
C0C0
C0C0
C0C0
C0C0
6180
7380
3F00
1E00
ENDCHAR
STARTCHAR otilde.sc
ENCODING -1
SWIDTH 488 0
DWIDTH 13 0
BBX 10 21 2 0
BITMAP
3880
7C80
6780
6300
0000
1E00
3F00
7380
6180
C0C0
C0C0
C0C0
C0C0
C0C0
C0C0
C0C0
C0C0
6180
7380
3F00
1E00
ENDCHAR
STARTCHAR ohungarumlaut.sc
ENCODING -1
SWIDTH 488 0
DWIDTH 13 0
BBX 11 21 1 0
BITMAP
0EE0
0CC0
1980
3100
0200
1F00
3F80
71C0
60C0
E0E0
C060
C060
C060
C060
C060
C060
E0E0
60C0
71C0
3F80
1F00
ENDCHAR
STARTCHAR racute.sc
ENCODING -1
SWIDTH 426 0
DWIDTH 11 0
BBX 9 21 2 0
BITMAP
0600
0C00
1800
1800
2000
FC00
FE00
C700
C300
C300
C300
C700
FE00
FC00
CC00
CE00
CE00
C600
C700
C700
C380
ENDCHAR
STARTCHAR rcommaaccent.sc
ENCODING -1
SWIDTH 426 0
DWIDTH 11 0
BBX 9 22 2 -6
BITMAP
FC00
FE00
C700
C300
C300
C300
C700
FE00
FC00
CC00
CE00
CE00
C600
C700
C700
C300
0080
1800
1800
3000
3000
3000
ENDCHAR
STARTCHAR rcaron.sc
ENCODING -1
SWIDTH 426 0
DWIDTH 11 0
BBX 9 21 2 0
BITMAP
C700
6400
2C00
3800
0000
FC00
FE00
C700
C300
C300
C300
C700
FE00
FC00
CC00
CE00
CE00
C600
C700
C700
C380
ENDCHAR
STARTCHAR sacute.sc
ENCODING -1
SWIDTH 367 0
DWIDTH 10 0
BBX 8 21 1 0
BITMAP
03
06
0C
0C
10
3E
7F
E2
C0
C0
C0
E0
78
1E
07
03
03
83
C7
FE
3C
ENDCHAR
STARTCHAR scaron.sc
ENCODING -1
SWIDTH 367 0
DWIDTH 10 0
BBX 9 21 1 0
BITMAP
C380
6700
3600
1C00
0000
3E00
7F00
E200
C000
C000
C000
E000
7800
1E00
0700
0300
0300
8300
C700
FE00
3C00
ENDCHAR
STARTCHAR scommaaccent.sc
ENCODING -1
SWIDTH 367 0
DWIDTH 10 0
BBX 8 22 1 -6
BITMAP
3E
7F
E2
C0
C0
C0
E0
78
1E
07
03
03
83
C7
FE
3C
00
18
30
30
30
60
ENDCHAR
STARTCHAR scedilla.sc
ENCODING -1
SWIDTH 367 0
DWIDTH 10 0
BBX 9 23 0 -7
BITMAP
1E00
3F80
7100
6000
6000
6000
7000
3C00
0F00
0300
0180
0180
4180
6380
FF00
3E00
0800
1E00
1F00
0300
0300
3F00
1C00
ENDCHAR
STARTCHAR scircumflex.sc
ENCODING -1
SWIDTH 367 0
DWIDTH 10 0
BBX 9 21 1 0
BITMAP
1C00
3600
6700
4380
8000
3E00
7F00
E200
C000
C000
C000
E000
7800
1E00
0700
0300
0300
8300
C700
FE00
3C00
ENDCHAR
STARTCHAR germandbls.sc
ENCODING -1
SWIDTH 727 0
DWIDTH 20 0
BBX 18 16 1 0
BITMAP
3C0F00
7F1FC0
E23880
C03000
C03000
C03000
F03C00
781E00
1E0780
0701C0
0300C0
0300C0
8320C0
C731C0
FE3F80
3C0F00
ENDCHAR
STARTCHAR tcommaaccent.sc
ENCODING -1
SWIDTH 299 0
DWIDTH 8 0
BBX 8 22 0 -6
BITMAP
FF
FF
18
18
18
18
18
18
18
18
18
18
18
18
18
18
00
18
30
30
30
30
ENDCHAR
STARTCHAR tcaron.sc
ENCODING -1
SWIDTH 299 0
DWIDTH 8 0
BBX 8 21 0 0
BITMAP
C3
66
3C
1C
00
FF
FF
18
18
18
18
18
18
18
18
18
18
18
18
18
18
ENDCHAR
STARTCHAR tbar.sc
ENCODING -1
SWIDTH 299 0
DWIDTH 8 0
BBX 8 16 0 0
BITMAP
FF
FF
18
18
18
7E
7E
18
18
18
18
18
18
18
18
18
ENDCHAR
STARTCHAR uogonek.sc
ENCODING -1
SWIDTH 487 0
DWIDTH 13 0
BBX 9 22 2 -6
BITMAP
C180
C180
C180
C180
C180
C180
C180
C180
C180
C180
C180
C180
C180
E380
7F00
3E00
0800
1000
3000
3400
3E00
1C00
ENDCHAR
STARTCHAR uacute.sc
ENCODING -1
SWIDTH 487 0
DWIDTH 13 0
BBX 9 21 2 0
BITMAP
0300
0600
0C00
0C00
1000
C180
C180
C180
C180
C180
C180
C180
C180
C180
C180
C180
C180
C180
E380
7F00
3E00
ENDCHAR
STARTCHAR ugrave.sc
ENCODING -1
SWIDTH 487 0
DWIDTH 13 0
BBX 9 21 2 0
BITMAP
7000
3000
1800
1800
0400
C180
C180
C180
C180
C180
C180
C180
C180
C180
C180
C180
C180
C180
E380
7F00
3E00
ENDCHAR
STARTCHAR ucircumflex.sc
ENCODING -1
SWIDTH 487 0
DWIDTH 13 0
BBX 9 21 2 0
BITMAP
1C00
3600
3600
6300
0000
C180
C180
C180
C180
C180
C180
C180
C180
C180
C180
C180
C180
C180
E380
7F00
3E00
ENDCHAR
STARTCHAR udieresis.sc
ENCODING -1
SWIDTH 487 0
DWIDTH 13 0
BBX 9 20 2 0
BITMAP
6300
6300
0000
0000
C180
C180
C180
C180
C180
C180
C180
C180
C180
C180
C180
C180
C180
E380
7F00
3E00
ENDCHAR
STARTCHAR ubreve.sc
ENCODING -1
SWIDTH 487 0
DWIDTH 13 0
BBX 9 21 2 0
BITMAP
6180
6300
3F00
1E00
0000
C180
C180
C180
C180
C180
C180
C180
C180
C180
C180
C180
C180
C180
E380
7F00
3E00
ENDCHAR
STARTCHAR uhungarumlaut.sc
ENCODING -1
SWIDTH 487 0
DWIDTH 13 0
BBX 10 21 2 0
BITMAP
0CC0
1980
1B00
3300
0400
C180
C180
C180
C180
C180
C180
C180
C180
C180
C180
C180
C180
C180
E380
7F00
3E00
ENDCHAR
STARTCHAR umacron.sc
ENCODING -1
SWIDTH 487 0
DWIDTH 13 0
BBX 9 20 2 0
BITMAP
7F00
7F00
0000
0000
C180
C180
C180
C180
C180
C180
C180
C180
C180
C180
C180
C180
C180
E380
7F00
3E00
ENDCHAR
STARTCHAR utilde.sc
ENCODING -1
SWIDTH 487 0
DWIDTH 13 0
BBX 9 21 2 0
BITMAP
7100
F900
CF00
C600
0000
C180
C180
C180
C180
C180
C180
C180
C180
C180
C180
C180
C180
C180
E380
7F00
3E00
ENDCHAR
STARTCHAR uring.sc
ENCODING -1
SWIDTH 487 0
DWIDTH 13 0
BBX 9 23 2 0
BITMAP
1C00
3E00
2200
2200
2200
3E00
1C00
C180
C180
C180
C180
C180
C180
C180
C180
C180
C180
C180
C180
C180
E380
7F00
3E00
ENDCHAR
STARTCHAR wcircumflex.sc
ENCODING -1
SWIDTH 634 0
DWIDTH 18 0
BBX 17 21 0 0
BITMAP
01C000
01E000
033000
061800
000000
E0C180
61C180
61E380
71E380
71E300
71E300
336300
333300
333700
3B3600
3B3600
1E3600
1E3E00
1E1E00
1E1C00
1E1C00
ENDCHAR
STARTCHAR ycircumflex.sc
ENCODING -1
SWIDTH 373 0
DWIDTH 10 0
BBX 10 21 0 0
BITMAP
0E00
1E00
3300
6180
0000
E1C0
E1C0
6180
7380
3300
3300
1E00
1E00
1E00
0C00
0C00
0C00
0C00
0C00
0C00
0C00
ENDCHAR
STARTCHAR yacute.sc
ENCODING -1
SWIDTH 373 0
DWIDTH 10 0
BBX 10 21 0 0
BITMAP
0380
0300
0600
0C00
0000
E1C0
E1C0
6180
7380
3300
3300
1E00
1E00
1E00
0C00
0C00
0C00
0C00
0C00
0C00
0C00
ENDCHAR
STARTCHAR ydieresis.sc
ENCODING -1
SWIDTH 373 0
DWIDTH 10 0
BBX 10 20 0 0
BITMAP
3300
3300
0000
0000
E1C0
E1C0
6180
7380
3300
3300
1E00
1E00
1E00
0C00
0C00
0C00
0C00
0C00
0C00
0C00
ENDCHAR
STARTCHAR zacute.sc
ENCODING -1
SWIDTH 360 0
DWIDTH 10 0
BBX 8 21 1 0
BITMAP
07
0E
0C
18
00
FF
FF
07
06
0E
0C
1C
18
38
38
70
70
E0
E0
FF
FF
ENDCHAR
STARTCHAR zdotaccent.sc
ENCODING -1
SWIDTH 360 0
DWIDTH 10 0
BBX 8 21 1 0
BITMAP
30
30
30
30
00
FF
FF
07
06
0E
0C
1C
18
38
38
70
70
E0
E0
FF
FF
ENDCHAR
STARTCHAR zcaron.sc
ENCODING -1
SWIDTH 360 0
DWIDTH 10 0
BBX 8 21 1 0
BITMAP
C3
66
3C
1C
00
FF
FF
07
06
0E
0C
1C
18
38
38
70
70
E0
E0
FF
FF
ENDCHAR
STARTCHAR ij.sc
ENCODING -1
SWIDTH 575 0
DWIDTH 16 0
BBX 12 16 2 0
BITMAP
C030
C030
C030
C030
C030
C030
C030
C030
C030
C030
C030
C030
C230
C630
C7E0
C3C0
ENDCHAR
STARTCHAR oe.sc
ENCODING -1
SWIDTH 556 0
DWIDTH 16 0
BBX 13 15 1 0
BITMAP
1FF0
3FF0
7300
6300
C300
C300
C3F0
C3F0
C300
C300
C300
6300
7300
3FF8
1FF8
ENDCHAR
STARTCHAR eth.sc
ENCODING -1
SWIDTH 473 0
DWIDTH 13 0
BBX 11 15 1 0
BITMAP
7E00
7F80
61C0
60C0
60E0
6060
FC60
FC60
6060
6060
60E0
60C0
61C0
7F80
7E00
ENDCHAR
ENDFONT
